<?xml version="1.0" encoding="UTF-8"?>
<!DOCTYPE svg PUBLIC "-//W3C//DTD SVG 1.1//EN" "http://www.w3.org/Graphics/SVG/1.1/DTD/svg11.dtd">
<!-- Creator: CorelDRAW 2020 (64-Bit Versión de evaluación) -->
<svg xmlns="http://www.w3.org/2000/svg" xml:space="preserve" width="32.7024mm" height="32.7024mm" version="1.1" style="shape-rendering:geometricPrecision; text-rendering:geometricPrecision; image-rendering:optimizeQuality; fill-rule:evenodd; clip-rule:evenodd"
viewBox="0 0 200.42 200.42"
 xmlns:xlink="http://www.w3.org/1999/xlink"
 xmlns:xodm="http://www.corel.com/coreldraw/odm/2003">
 <defs>
  <style type="text/css">
   <![CDATA[
    .str0 {stroke:#0098DA;stroke-width:2.16;stroke-miterlimit:22.9256}
    .fil4 {fill:none}
    .fil1 {fill:#FEFEFE;fill-opacity:0.549020}
    .fil3 {fill:#373435;fill-rule:nonzero;fill-opacity:0.749020}
    .fil2 {fill:#ED3237;fill-rule:nonzero}
    .fil0 {fill:url(#id2)}
   ]]>
  </style>
    <clipPath id="id0">
     <path d="M136.74 22.21l0 0c2.84,-2.84 6.7,-1.73 10.32,0 4.93,2.35 10.55,6.51 14.89,10.86 4.75,4.75 9.61,10.74 12.39,16.43 1.76,3.61 2.84,7.48 0,10.32l0 0c-2.84,2.84 -8.41,3.53 -10.32,0 -3.13,-5.8 -8.29,-12.1 -13.28,-17.09 -4.1,-4.1 -8.37,-7.56 -14.01,-10.2 -3.63,-1.7 -2.84,-7.48 0,-10.32z"/>
    </clipPath>
    <clipPath id="id1">
     <path d="M136.74 22.21l0 0c2.84,-2.84 6.7,-1.73 10.32,0 4.93,2.35 10.55,6.51 14.89,10.86 4.75,4.75 9.61,10.74 12.39,16.43 1.76,3.61 2.84,7.48 0,10.32l0 0c-2.84,2.84 -8.41,3.53 -10.32,0 -3.13,-5.8 -8.29,-12.1 -13.28,-17.09 -4.1,-4.1 -8.37,-7.56 -14.01,-10.2 -3.63,-1.7 -2.84,-7.48 0,-10.32z"/>
    </clipPath>
  <radialGradient id="id2" gradientUnits="userSpaceOnUse" gradientTransform="matrix(1 -0 -0 1 0 0)" cx="100.21" cy="100.21" r="128.43" fx="100.21" fy="100.21">
   <stop offset="0" style="stop-opacity:0; stop-color:#FEFEFE"/>
   <stop offset="0.839216" style="stop-opacity:0.501961; stop-color:#D5EFFB"/>
   <stop offset="1" style="stop-opacity:1; stop-color:#ACE1F9"/>
  </radialGradient>
 </defs>
 <g id="Capa_x0020_1">
  <metadata id="CorelCorpID_0Corel-Layer"/>
  <g id="_2059572382736">
   <circle class="fil0 str0" cx="100.21" cy="100.21" r="99.13"/>
   <g style="clip-path:url(#id0)">
    <polygon class="fil1" points="134.31,20.47 176.1,20.47 176.1,62.22 134.31,62.22 "/>
   </g>
   <g style="clip-path:url(#id1)">
    <g>
     <path id="1" class="fil2" d="M111.93 38.39c-0.28,0 -0.56,0 -0.85,0.01 -13.57,0.29 -28.4,6.97 -37.83,16.12 -12.34,11.99 -27.04,31.81 -34.97,50.9 -3.97,9.54 -6.23,18.89 -5.86,26.86 0.36,7.97 3.15,14.47 9.57,19.28 4.62,3.47 8.42,3.23 13.18,0.8 4.76,-2.43 10.02,-7.45 15.42,-13.35 10.8,-11.81 21.99,-27.19 35.59,-31.75 18.18,-6.08 28.91,-10.13 35.57,-13.76 6.66,-3.63 9.23,-6.61 11.98,-11.49 2.15,-3.82 2.46,-7.67 1.48,-11.73 -0.98,-4.06 -3.35,-8.29 -6.6,-12.24 -6.51,-7.91 -16.55,-14.69 -24.62,-17.65 -3.75,-1.37 -7.84,-2 -12.06,-1.99l0 -0zm1.01 7.14c6.24,-0.03 12.4,1.28 17.2,4.91 13.99,10.56 25.43,17.34 15.99,32.91 -9.44,15.57 -52.06,17.11 -63.99,5.9 -0.49,-3.12 -3.71,-26.9 2.99,-35.78 3.68,-2.94 15.89,-7.87 27.8,-7.93l0 0zm-35.26 12.84c-0.31,0.59 -2.08,24.45 -3.06,29.1 -5.71,2.86 -21.11,6.2 -21.74,2.05 1.06,-4.9 10.91,-21.18 24.8,-31.15l0 0zm-10.72 35.8c9.99,-0.06 20.32,4.93 30.79,10.62 -20.96,10.98 -41.73,53.04 -55.04,39.41 -5.36,-5.91 -5.72,-35.23 8.87,-45.17 5.01,-3.42 10.15,-4.83 15.38,-4.86l0 0zm-10.73 21.53c-1.6,0.03 -3.21,0.52 -4.34,1.41 -3.63,2.87 -6.39,10.04 -3.3,13.48 2.96,3.29 10.43,1.71 13.16,-1.77 2.43,-3.1 1.67,-9.14 -1.27,-11.77 -1.07,-0.95 -2.65,-1.38 -4.25,-1.35l-0 0z"/>
     <path class="fil3" d="M159.48 66.09c0.35,0.97 0.65,1.95 0.89,2.94 1.24,5.12 0.8,10.56 -2.01,15.57 -3.04,5.4 -6.77,9.57 -14.06,13.55 -7.29,3.98 -18.18,8.03 -36.42,14.13 -10.85,3.63 -22.3,18.2 -33.37,30.3 -5.53,6.05 -11.01,11.47 -16.92,14.5 -1.73,0.89 -3.54,1.53 -5.39,1.89 0.89,0.51 1.81,0.98 2.7,1.39 2.39,1.1 4.87,1.67 5.06,1.67 4.13,-0.19 8.55,-2.45 13.18,-6.18 4.65,-3.75 9.43,-8.91 14.26,-14.32 9.66,-10.82 19.34,-22.8 30.72,-26.61 18.18,-6.09 29.02,-10.08 35.73,-13.69 6.7,-3.61 9.24,-6.54 11.78,-11.48 2.86,-5.56 3.01,-9.49 1.33,-13.61 -1.27,-3.11 -3.81,-6.39 -7.47,-10.04l0 -0z"/>
    </g>
   </g>
   <path class="fil4" d="M136.74 22.21l0 0c2.84,-2.84 6.7,-1.73 10.32,0 4.93,2.35 10.55,6.51 14.89,10.86 4.75,4.75 9.61,10.74 12.39,16.43 1.76,3.61 2.84,7.48 0,10.32l0 0c-2.84,2.84 -8.41,3.53 -10.32,0 -3.13,-5.8 -8.29,-12.1 -13.28,-17.09 -4.1,-4.1 -8.37,-7.56 -14.01,-10.2 -3.63,-1.7 -2.84,-7.48 0,-10.32z"/>
  </g>
 </g>
</svg>
