<?xml version="1.0" encoding="UTF-8"?>
<!DOCTYPE svg PUBLIC "-//W3C//DTD SVG 1.1//EN" "http://www.w3.org/Graphics/SVG/1.1/DTD/svg11.dtd">
<!-- Creator: CorelDRAW 2020 (64-Bit Versión de evaluación) -->
<svg xmlns="http://www.w3.org/2000/svg" xml:space="preserve" width="19.9236mm" height="19.9234mm" version="1.1" style="shape-rendering:geometricPrecision; text-rendering:geometricPrecision; image-rendering:optimizeQuality; fill-rule:evenodd; clip-rule:evenodd"
viewBox="0 0 147.28 147.28"
 xmlns:xlink="http://www.w3.org/1999/xlink"
 xmlns:xodm="http://www.corel.com/coreldraw/odm/2003">
 <defs>
  <style type="text/css">
   <![CDATA[
    .fil0 {fill:#FEFEFE;fill-rule:nonzero}
   ]]>
  </style>
 </defs>
 <g id="Capa_x0020_1">
  <metadata id="CorelCorpID_0Corel-Layer"/>
  <g id="_2059593772400">
   <g>
    <path class="fil0" d="M-0 0l0 29.03 6.3 4.39 1.96 -9.87 15.54 10.23 -6.73 -27.68 9.09 4.32 -3.13 -10.42 -23.05 0 0 0zm36.86 0l6.11 12.94 -12.94 14.39 12.65 0 1.43 12.23 6.48 -7.91 3.2 19.07 11.93 -17.47 7.77 10.06 7.45 -28.07 10.4 6.5 0.18 -15.64 14.67 7.52 -0.93 20.78 8.76 -12.88 3.93 6.81 18.52 -19.78 0.37 13.61 10.43 -13.13 0 -9.05 -110.42 0 0 0zm-15.59 51.98c-5.12,0.01 -10.5,0.5 -16.12,1.35l-2.44 0.37 -0.02 2.45c-0.11,12.39 1.49,20.73 4.96,26.46 3.48,5.73 8.98,8.41 14.97,9.22 2.14,0.29 4.36,0.39 6.67,0.37l0 -28.47c-5.75,1.32 -10.04,6.47 -10.04,12.62 0,3.93 1.75,7.45 4.51,9.82 -0.13,-0.01 -0.25,-0.03 -0.38,-0.05 -4.94,-0.67 -8.26,-2.26 -10.83,-6.5 -2.38,-3.92 -3.96,-10.56 -4.1,-20.93 4.47,-0.59 8.76,-0.95 12.77,-0.95 7.92,-0.01 14.9,1.2 20.81,3.94 8.55,3.96 15.13,11.11 19.52,23.29 -7.26,-0.4 -14.11,0.09 -20.29,0.61 2.39,-2.35 3.87,-5.62 3.87,-9.23 0,-6.17 -4.32,-11.33 -10.1,-12.63l0 28.25c9.23,-0.62 19.51,-2.16 30.31,-0.98l4.3 0.47 -1.23 -4.15c-4.66,-15.78 -12.95,-25.76 -23.96,-30.86 -6.88,-3.19 -14.68,-4.49 -23.21,-4.47l0 0zm107.04 0c-8.53,-0.02 -16.33,1.29 -23.21,4.47 -11.01,5.1 -19.3,15.08 -23.96,30.86l-1.22 4.15 4.29 -0.47c10.95,-1.2 21.37,0.41 30.7,1.01l0 -28.37c-5.97,1.15 -10.49,6.4 -10.49,12.71 0,3.61 1.49,6.88 3.87,9.23 -6.18,-0.52 -13.03,-1.02 -20.28,-0.62 4.39,-12.17 10.98,-19.32 19.52,-23.28 5.91,-2.74 12.89,-3.95 20.81,-3.94 4.01,0.01 8.29,0.36 12.77,0.95 -0.14,10.37 -1.73,17.01 -4.11,20.93 -2.57,4.24 -5.88,5.83 -10.82,6.49 -0.13,0.02 -0.26,0.03 -0.39,0.05 2.77,-2.37 4.52,-5.89 4.52,-9.82 0,-6.01 -4.11,-11.06 -9.66,-12.52l0 28.38c2.17,0 4.27,-0.1 6.28,-0.38 5.99,-0.81 11.51,-3.48 14.98,-9.22 3.48,-5.74 5.06,-14.07 4.96,-26.46l-0.02 -2.45 -2.42 -0.37c-5.62,-0.85 -11.01,-1.34 -16.13,-1.35l0 0zm11.68 42.86l-0.84 10.82 -24.76 -1.25 24.13 20.4 -12.28 2.91 21.02 8.32 0 -32.46 -7.29 -8.74 0 0zm-40.38 3.7l-20.14 26.26 -3.78 -12.95 -8.99 29.85 -15.46 -20.85 -4.49 26.43 79.3 0 -1.97 -10.61 -16.37 6.12 -2.88 -16.37 -5.22 4.14 0 -32.02zm-92.62 4.68l-7.01 6.11 0 37.95 40.05 0 -4.98 -23.56 -4.27 5.15 -7.6 -16.67 -10.25 16.73 -5.94 -25.72 0 0z"/>
   </g>
  </g>
 </g>
</svg>
