<?xml version="1.0" encoding="UTF-8"?>
<!DOCTYPE svg PUBLIC "-//W3C//DTD SVG 1.1//EN" "http://www.w3.org/Graphics/SVG/1.1/DTD/svg11.dtd">
<!-- Creator: CorelDRAW 2020 (64-Bit Versión de evaluación) -->
<svg xmlns="http://www.w3.org/2000/svg" xml:space="preserve" width="18.4949mm" height="18.4949mm" version="1.1" style="shape-rendering:geometricPrecision; text-rendering:geometricPrecision; image-rendering:optimizeQuality; fill-rule:evenodd; clip-rule:evenodd"
viewBox="0 0 106.34 106.34"
 xmlns:xlink="http://www.w3.org/1999/xlink"
 xmlns:xodm="http://www.corel.com/coreldraw/odm/2003">
 <defs>
  <style type="text/css">
   <![CDATA[
    .fil0 {fill:#FEFEFE;fill-rule:nonzero}
   ]]>
  </style>
 </defs>
 <g id="Capa_x0020_1">
  <metadata id="CorelCorpID_0Corel-Layer"/>
  <g id="_2059551104976">
   <g>
    <path class="fil0" d="M20.33 0l21.86 33.55 -14.12 -33.55 -7.74 0zm12.26 0l14.32 34.03 -6.91 -34.03 -7.41 0 -0 0zm11.67 0l6.78 33.4 -0.03 -33.4 -6.75 0zm10.92 0l0.03 33.65 6.87 -33.65 -6.9 0zm11.15 0l-6.89 33.79 14.16 -33.79 -7.27 0zm11.79 0l-14.16 33.8 22.04 -33.8 -7.88 0zm-18.78 74.36l6.49 31.97 6.96 0 -13.46 -31.97 0 0zm-17.01 0.22l-20.71 31.76 7.4 0 13.31 -31.76zm4.5 0.05l-13.29 31.71 6.82 0 6.47 -31.71 0 0zm17.21 0.16l13.27 31.54 7.27 0 -20.55 -31.54 -0 0zm-12.99 0.01l-6.43 31.54 6.46 0 -0.03 -31.54 -0 -0zm4.17 0.32l0.03 31.22 6.31 0 -6.34 -31.22 0 0z"/>
    <path class="fil0" d="M106.34 20.33l-33.55 21.86 33.55 -14.12 0 -7.74zm0 12.26l-34.03 14.32 34.03 -6.91 0 -7.41 0 -0zm0 11.67l-33.4 6.78 33.4 -0.03 0 -6.75zm0 10.92l-33.65 0.03 33.65 6.87 0 -6.9zm0 11.15l-33.79 -6.89 33.79 14.16 0 -7.27zm0 11.79l-33.8 -14.16 33.8 22.04 0 -7.88zm-74.36 -18.78l-31.97 6.49 0 6.96 31.97 -13.46 0 0zm-0.22 -17.01l-31.76 -20.71 0 7.4 31.76 13.31zm-0.05 4.5l-31.71 -13.29 0 6.82 31.71 6.47 0 0zm-0.16 17.21l-31.54 13.27 0 7.27 31.54 -20.55 0 -0zm-0.01 -12.99l-31.54 -6.43 0 6.46 31.54 -0.03 0 -0zm-0.32 4.17l-31.22 0.03 0 6.31 31.22 -6.34 0 0z"/>
    <path class="fil0" d="M9.27 21.87l28.41 18.82 -23.64 -23.6 -4.77 4.77zm7.72 -7.72l23.82 23.77 -18.94 -28.65 -4.88 4.88zm49.99 55.8l17.75 26.85 4.57 -4.57 -22.32 -22.28zm3.18 -2.73l22.09 22.05 4.46 -4.46 -26.55 -17.59z"/>
    <path class="fil0" d="M21.84 96.1l18.82 -28.41 -23.6 23.64 4.77 4.77zm-7.72 -7.72l23.77 -23.82 -28.65 18.94 4.88 4.88zm55.8 -49.99l26.85 -17.75 -4.57 -4.57 -22.28 22.32zm19.33 -25.27l-4.46 -4.46 -17.59 26.55 22.05 -22.09z"/>
   </g>
   <g>
    <g>
     <path class="fil0" d="M51.14 39.2c-0.21,0 -0.24,0.03 -0.28,0.15 -0.04,0.12 -0.04,0.41 0.2,0.85 0.43,0.79 1.6,1.96 3.89,3.19 0.35,-0.37 0.77,-0.64 1.21,-0.83 -1.26,-0.7 -2.18,-1.46 -2.91,-2.08 -0.94,-0.79 -1.55,-1.28 -2.12,-1.28l0 0zm-3.27 2.7c-0.19,0 -0.23,0.04 -0.25,0.07 -0.02,0.02 -0.05,0.09 -0.02,0.25 0.05,0.32 0.35,0.89 0.89,1.43 1.07,1.08 3,2.09 5.41,1.72 0.11,-0.02 0.23,-0.03 0.39,0.06 0.15,0.09 0.23,0.29 0.24,0.41 0,0.24 -0.07,0.34 -0.13,0.47 -0.12,0.26 -0.22,0.58 -0.22,0.57l0 0c0.1,0.74 0.71,1.3 1.6,1.71 0.89,0.41 2.01,0.64 2.91,0.73 0.62,0.06 1.35,0.05 2.02,-0.07 -0.08,-0.13 -0.13,-0.28 -0.16,-0.42 -0.09,-0.4 0.01,-0.81 0.2,-1.15 0.32,-0.55 0.9,-0.97 1.6,-1.13 -0.23,-0.39 -0.52,-0.81 -0.84,-1.22 -0.98,-1.23 -2.34,-2.32 -3.36,-2.34 -1.01,-0.02 -2.18,0.3 -2.84,1.2 -0.11,0.15 -0.27,0.2 -0.4,0.22 -0.12,0.02 -0.23,0 -0.34,-0.01 -0.23,-0.04 -0.48,-0.12 -0.77,-0.22 -0.58,-0.21 -1.32,-0.54 -2.08,-0.88 -0.77,-0.34 -1.57,-0.69 -2.26,-0.96 -0.7,-0.27 -1.31,-0.43 -1.58,-0.43l0 0zm11.09 3.06c0.43,0.01 0.77,0.36 0.77,0.79 0,0 0,0 0,0 0,0.44 -0.35,0.79 -0.79,0.79 -0.44,0 -0.79,-0.35 -0.79,-0.79 0,0 0,0 0,0 0,-0.44 0.35,-0.79 0.79,-0.79 0.01,0 0.02,0 0.02,0l0 0zm-17.82 2.32c-0.04,0 -0.1,0.01 -0.2,0.06 0,0 0,0 0,0 0,0 0,0 0,0 -0.21,0.1 -0.37,0.36 -0.44,0.81 -0.07,0.45 -0.03,1.05 0.09,1.66 0.13,0.61 0.34,1.22 0.6,1.71 0.15,0.29 0.32,0.52 0.47,0.7 0.25,-0.85 0.69,-1.67 1.37,-2.39 -0.16,-0.1 -0.29,-0.22 -0.41,-0.35 -0.35,-0.38 -0.57,-0.83 -0.77,-1.23 -0.2,-0.4 -0.39,-0.73 -0.53,-0.87 -0.07,-0.07 -0.11,-0.08 -0.15,-0.09 -0.01,-0 -0.02,-0 -0.03,-0l0 0zm21.43 0.16c-0.58,0.06 -1.05,0.39 -1.25,0.74 -0.11,0.19 -0.14,0.36 -0.1,0.52 0.02,0.12 0.08,0.24 0.22,0.36 0.59,-0.23 1.05,-0.56 1.29,-1.03 -0.01,0.02 0.01,-0.06 -0.02,-0.21 -0.02,-0.1 -0.07,-0.23 -0.13,-0.38l0 0zm-9.81 0.38c-0.12,0 -0.24,0 -0.36,0 -3.54,0.04 -5.96,0.67 -7.54,1.59 -1.81,1.06 -2.56,2.48 -2.71,4.02 -0.15,1.55 0.33,3.24 1.09,4.67 0.73,1.38 1.73,2.52 2.57,3.07l8.8 0c-0.01,-0.09 -0.03,-0.18 -0.07,-0.26 -0.08,-0.16 -0.24,-0.32 -0.5,-0.48 -0.51,-0.31 -1.34,-0.55 -2.21,-0.71 -0.87,-0.17 -1.79,-0.28 -2.5,-0.39 -0.36,-0.06 -0.66,-0.12 -0.92,-0.2 -0.13,-0.04 -0.24,-0.09 -0.36,-0.18 -0.12,-0.09 -0.26,-0.27 -0.26,-0.49 0,-0.13 0.06,-0.25 0.12,-0.31 0.05,-0.06 0.1,-0.09 0.14,-0.11 0.07,-0.04 0.11,-0.05 0.15,-0.06 0.08,-0.02 0.16,-0.03 0.25,-0.04 0.19,-0.02 0.43,-0.04 0.73,-0.06 0.59,-0.04 1.39,-0.1 2.22,-0.23 1.67,-0.26 3.43,-0.83 4.01,-1.8 0.32,-0.53 0.28,-1.02 -0.03,-1.54 -0.31,-0.52 -0.93,-1.02 -1.77,-1.35 -1.67,-0.66 -4.15,-0.62 -6.56,1.11l-0.52 -0.72c1.65,-1.18 3.36,-1.66 4.89,-1.67 0.92,-0 1.77,0.16 2.51,0.45 0.98,0.39 1.76,0.98 2.2,1.73 0.44,0.74 0.5,1.66 0.03,2.45 -0.87,1.46 -2.89,1.95 -4.64,2.22 -0.29,0.04 -0.56,0.07 -0.83,0.1 0.42,0.06 0.86,0.13 1.3,0.21 0.92,0.18 1.82,0.41 2.51,0.83 0.34,0.21 0.64,0.48 0.82,0.83 0.1,0.2 0.16,0.42 0.17,0.66l6.46 0c0.1,-0.09 0.17,-0.16 0.19,-0.2 0.03,-0.05 0.02,-0.06 0.01,-0.1 -0.02,-0.09 -0.18,-0.3 -0.38,-0.55 -0.12,-0.15 -0.54,-0.39 -1.07,-0.52 -0.53,-0.13 -1.15,-0.18 -1.69,-0.11l-0.12 0.01 -0.11 -0.04c-0.33,-0.13 -0.59,-0.48 -0.61,-0.81 -0.02,-0.33 0.09,-0.61 0.23,-0.91 0.28,-0.6 0.73,-1.3 1.1,-2.11 0.37,-0.81 0.64,-1.71 0.58,-2.66 -0.06,-0.93 -0.42,-1.92 -1.38,-3.01 -0.03,-0 -0.06,-0.01 -0.09,-0.01l0 0c-0.96,-0.09 -2.15,-0.33 -3.17,-0.8 -0.75,-0.35 -1.44,-0.85 -1.8,-1.54 -0.23,-0.01 -0.46,-0.01 -0.68,-0.01l-0.2 0z"/>
    </g>
   </g>
  </g>
 </g>
</svg>
