<?xml version="1.0" encoding="UTF-8"?>
<!DOCTYPE svg PUBLIC "-//W3C//DTD SVG 1.1//EN" "http://www.w3.org/Graphics/SVG/1.1/DTD/svg11.dtd">
<!-- Creator: CorelDRAW 2020 (64-Bit Versión de evaluación) -->
<svg xmlns="http://www.w3.org/2000/svg" xml:space="preserve" width="17.2014mm" height="15.5709mm" version="1.1" style="shape-rendering:geometricPrecision; text-rendering:geometricPrecision; image-rendering:optimizeQuality; fill-rule:evenodd; clip-rule:evenodd"
viewBox="0 0 110.63 100.14"
 xmlns:xlink="http://www.w3.org/1999/xlink"
 xmlns:xodm="http://www.corel.com/coreldraw/odm/2003">
 <defs>
  <style type="text/css">
   <![CDATA[
    .fil0 {fill:#FEFEFE;fill-rule:nonzero}
   ]]>
  </style>
 </defs>
 <g id="Capa_x0020_1">
  <metadata id="CorelCorpID_0Corel-Layer"/>
  <g id="_2059582087872">
   <g>
    <path class="fil0" d="M49.19 0c-6.54,0.02 -13.58,0.68 -21.09,2.03 46.31,-3.38 70.02,20.4 82.53,54.76 0,-33.22 -21.48,-56.92 -61.44,-56.8l0 0zm-0.62 7.79c-13.14,5.19 -22.58,18.82 -22.58,34.96 0,11.36 4.67,21.47 12.02,28.28 5.25,1.99 10.79,2.53 16.55,2.22 -6.07,-22.27 -1.98,-42.96 7.53,-62.81 -4.3,-1.51 -8.8,-2.41 -13.52,-2.64l0 0zm-9.7 0.41c-10.04,1.32 -21.01,5.4 -33.03,12.64 5.79,22.51 13.11,35.93 21.5,43.57 -3.61,-6.32 -5.69,-13.74 -5.69,-21.66 0,-14.35 6.82,-27.08 17.21,-34.55l0 0zm31.09 5.79c0.36,1.45 0.68,2.91 0.96,4.37 -0.41,-0.08 -0.84,-0.12 -1.27,-0.12 -3.59,0 -6.5,2.91 -6.5,6.5 0,3.59 2.91,6.5 6.5,6.5 1,0 1.95,-0.22 2.8,-0.63 0.76,14.42 -2.23,28.7 -9.51,41.68 7.55,-1.25 15.39,-3.4 23.36,-5.19 5.21,-6.51 8.37,-15 8.37,-24.34 0,-1.86 -0.13,-3.69 -0.37,-5.47 -7.25,-10.29 -15.3,-18.24 -24.34,-23.29l0 0zm-69.97 11.23c4.21,70.32 53.48,74.93 109.96,43.38 -43.22,1.02 -87.42,43.7 -109.96,-43.38l0 0zm98.97 19.18c-0.29,7.88 -2.63,15.21 -6.48,21.39 5.56,-1.07 11.16,-1.81 16.74,-1.81 -3.23,-7.09 -6.64,-13.64 -10.26,-19.58zm9.63 30.09c-29.45,18.33 -61.96,25.87 -97.58,9.07 30.19,26.85 79.29,19.09 97.58,-9.07l0 0z"/>
   </g>
  </g>
 </g>
</svg>
