<?xml version="1.0" encoding="UTF-8"?>
<!DOCTYPE svg PUBLIC "-//W3C//DTD SVG 1.1//EN" "http://www.w3.org/Graphics/SVG/1.1/DTD/svg11.dtd">
<!-- Creator: CorelDRAW 2020 (64-Bit Versión de evaluación) -->
<svg xmlns="http://www.w3.org/2000/svg" xml:space="preserve" width="18.8363mm" height="18.7967mm" version="1.1" style="shape-rendering:geometricPrecision; text-rendering:geometricPrecision; image-rendering:optimizeQuality; fill-rule:evenodd; clip-rule:evenodd"
viewBox="0 0 110.04 109.81"
 xmlns:xlink="http://www.w3.org/1999/xlink"
 xmlns:xodm="http://www.corel.com/coreldraw/odm/2003">
 <defs>
  <style type="text/css">
   <![CDATA[
    .fil0 {fill:#FEFEFE;fill-rule:nonzero}
   ]]>
  </style>
 </defs>
 <g id="Capa_x0020_1">
  <metadata id="CorelCorpID_0Corel-Layer"/>
  <g id="_2059600970592">
   <g>
    <path class="fil0" d="M10.63 109.81c-2.13,0 -4.3,-1.46 -6.06,-4.42 -1.54,-2.57 -2.64,-6.15 -2.9,-10.17 3.07,-0.76 5.66,-3.12 7.49,-6.17 0.55,-0.9 1.04,-1.9 1.47,-2.94 0.43,1.04 0.92,2.03 1.47,2.94 1.84,3.05 4.42,5.41 7.48,6.17 -0.25,4.02 -1.35,7.61 -2.88,10.17 -1.77,2.96 -3.93,4.42 -6.06,4.42zm22.19 0c-2.13,0 -4.3,-1.46 -6.06,-4.42 -1.55,-2.57 -2.64,-6.15 -2.89,-10.17 3.05,-0.76 5.64,-3.12 7.49,-6.17 0.53,-0.9 1.04,-1.9 1.46,-2.91 0.42,1.02 0.92,2.01 1.46,2.91 1.85,3.05 4.44,5.41 7.49,6.17 -0.25,4.02 -1.34,7.61 -2.89,10.17 -1.76,2.96 -3.93,4.42 -6.06,4.42zm22.19 0c-2.13,0 -4.3,-1.46 -6.06,-4.42 -1.55,-2.57 -2.64,-6.15 -2.89,-10.17 3.05,-0.76 5.64,-3.12 7.49,-6.17 0.53,-0.9 1.04,-1.9 1.46,-2.91 0.42,1.02 0.92,2.01 1.46,2.91 1.85,3.05 4.44,5.41 7.49,6.17 -0.25,4.02 -1.34,7.61 -2.89,10.17 -1.76,2.96 -3.93,4.42 -6.06,4.42zm22.19 0c-2.13,0 -4.3,-1.46 -6.06,-4.42 -1.55,-2.57 -2.64,-6.15 -2.89,-10.17 3.05,-0.76 5.64,-3.12 7.49,-6.17 0.53,-0.9 1.04,-1.9 1.46,-2.91 0.42,1.02 0.92,2.01 1.46,2.91 1.85,3.05 4.44,5.41 7.49,6.17 -0.25,4.02 -1.34,7.61 -2.89,10.17 -1.76,2.96 -3.93,4.42 -6.06,4.42zm22.19 0c-2.13,0 -4.3,-1.46 -6.06,-4.42 -1.55,-2.57 -2.64,-6.15 -2.89,-10.17 3.05,-0.76 5.64,-3.12 7.49,-6.17 0.53,-0.9 1.04,-1.9 1.46,-2.91 0.42,1.02 0.92,2.01 1.46,2.91 1.85,3.05 4.44,5.41 7.49,6.17 -0.25,4.02 -1.34,7.61 -2.89,10.17 -1.76,2.96 -3.93,4.42 -6.06,4.42zm-77.68 -18.49c-2.13,0 -4.3,-1.46 -6.06,-4.42 -1.54,-2.57 -2.64,-6.15 -2.89,-10.17 3.07,-0.76 5.65,-3.12 7.5,-6.17 0.53,-0.9 1.02,-1.9 1.46,-2.94 0.42,1.04 0.92,2.03 1.46,2.94 1.85,3.05 4.44,5.41 7.49,6.17 -0.25,4.02 -1.34,7.61 -2.89,10.17 -1.76,2.96 -3.93,4.42 -6.06,4.42l0 0zm22.19 0c-2.13,0 -4.3,-1.46 -6.06,-4.42 -1.55,-2.57 -2.64,-6.15 -2.89,-10.17 3.05,-0.76 5.64,-3.12 7.49,-6.17 0.53,-0.9 1.04,-1.9 1.46,-2.91 0.42,1.02 0.92,2.01 1.46,2.91 1.85,3.05 4.44,5.41 7.49,6.17 -0.25,4.02 -1.34,7.61 -2.89,10.17 -1.76,2.96 -3.93,4.42 -6.06,4.42zm22.19 0c-2.13,0 -4.3,-1.46 -6.06,-4.42 -1.55,-2.57 -2.64,-6.15 -2.89,-10.17 3.05,-0.76 5.64,-3.12 7.49,-6.17 0.53,-0.9 1.04,-1.9 1.46,-2.91 0.42,1.02 0.92,2.01 1.46,2.91 1.85,3.05 4.44,5.41 7.49,6.17 -0.25,4.02 -1.34,7.61 -2.89,10.17 -1.76,2.96 -3.93,4.42 -6.06,4.42zm22.19 0c-2.13,0 -4.3,-1.46 -6.06,-4.42 -1.55,-2.57 -2.64,-6.15 -2.89,-10.17 3.05,-0.76 5.64,-3.12 7.49,-6.17 0.53,-0.9 1.04,-1.9 1.46,-2.91 0.42,1.02 0.92,2.01 1.46,2.91 1.85,3.05 4.44,5.41 7.49,6.17 -0.25,4.02 -1.34,7.61 -2.89,10.17 -1.76,2.96 -3.93,4.42 -6.06,4.42zm-88.31 -0.02l0 -22.63c0.31,0.67 0.64,1.29 1,1.9 1.84,3.05 4.42,5.41 7.49,6.17 -0.26,4.02 -1.35,7.61 -2.89,10.17 -1.64,2.75 -3.62,4.18 -5.6,4.39l0 0zm110.04 0c-1.99,-0.21 -3.95,-1.64 -5.59,-4.39 -1.55,-2.57 -2.64,-6.15 -2.89,-10.17 3.05,-0.76 5.64,-3.12 7.49,-6.17 0.35,-0.6 0.69,-1.23 0.99,-1.87l0 22.61zm-99.41 -18.47c-2.13,0 -4.3,-1.46 -6.06,-4.42 -1.54,-2.57 -2.64,-6.15 -2.89,-10.17 3.07,-0.76 5.65,-3.12 7.49,-6.17 0.55,-0.9 1.04,-1.9 1.47,-2.94 0.43,1.04 0.92,2.03 1.47,2.94 1.84,3.05 4.42,5.41 7.48,6.17 -0.25,4.02 -1.35,7.61 -2.88,10.17 -1.77,2.96 -3.93,4.42 -6.06,4.42zm22.19 0c-2.13,0 -4.3,-1.46 -6.06,-4.42 -1.55,-2.57 -2.64,-6.15 -2.89,-10.17 3.05,-0.76 5.64,-3.12 7.49,-6.17 0.53,-0.9 1.04,-1.9 1.46,-2.91 0.42,1.02 0.92,2.01 1.46,2.91 1.85,3.05 4.44,5.41 7.49,6.17 -0.25,4.02 -1.34,7.61 -2.89,10.17 -1.76,2.96 -3.93,4.42 -6.06,4.42zm22.19 0c-2.13,0 -4.3,-1.46 -6.06,-4.42 -1.55,-2.57 -2.64,-6.15 -2.89,-10.17 3.05,-0.76 5.64,-3.12 7.49,-6.17 0.53,-0.9 1.04,-1.9 1.46,-2.91 0.42,1.02 0.92,2.01 1.46,2.91 1.85,3.05 4.44,5.41 7.49,6.17 -0.25,4.02 -1.34,7.61 -2.89,10.17 -1.76,2.96 -3.93,4.42 -6.06,4.42zm22.19 0c-2.13,0 -4.3,-1.46 -6.06,-4.42 -1.55,-2.57 -2.64,-6.15 -2.89,-10.17 3.05,-0.76 5.64,-3.12 7.49,-6.17 0.53,-0.9 1.04,-1.9 1.46,-2.91 0.42,1.02 0.92,2.01 1.46,2.91 1.85,3.05 4.44,5.41 7.49,6.17 -0.25,4.02 -1.34,7.61 -2.89,10.17 -1.76,2.96 -3.93,4.42 -6.06,4.42zm22.19 0c-2.13,0 -4.3,-1.46 -6.06,-4.42 -1.55,-2.57 -2.64,-6.15 -2.89,-10.17 3.05,-0.76 5.64,-3.12 7.49,-6.17 0.53,-0.9 1.04,-1.9 1.46,-2.91 0.42,1.02 0.92,2.01 1.46,2.91 1.85,3.05 4.44,5.41 7.49,6.17 -0.25,4.02 -1.34,7.61 -2.89,10.17 -1.76,2.96 -3.93,4.42 -6.06,4.42zm-77.68 -18.49c-2.13,0 -4.3,-1.46 -6.06,-4.42 -1.54,-2.57 -2.64,-6.15 -2.89,-10.17 3.07,-0.76 5.65,-3.12 7.5,-6.17 0.53,-0.9 1.02,-1.9 1.46,-2.94 0.42,1.04 0.92,2.03 1.46,2.94 1.85,3.05 4.44,5.41 7.49,6.17 -0.25,4.02 -1.34,7.61 -2.89,10.17 -1.76,2.96 -3.93,4.42 -6.06,4.42l0 0zm22.19 0c-2.13,0 -4.3,-1.46 -6.06,-4.42 -1.55,-2.57 -2.64,-6.15 -2.89,-10.17 3.05,-0.76 5.64,-3.12 7.49,-6.17 0.53,-0.9 1.04,-1.9 1.46,-2.91 0.42,1.02 0.92,2.01 1.46,2.91 1.85,3.05 4.44,5.41 7.49,6.17 -0.25,4.02 -1.34,7.61 -2.89,10.17 -1.76,2.96 -3.93,4.42 -6.06,4.42zm22.19 0c-2.13,0 -4.3,-1.46 -6.06,-4.42 -1.55,-2.57 -2.64,-6.15 -2.89,-10.17 3.05,-0.76 5.64,-3.12 7.49,-6.17 0.55,-0.9 1.04,-1.9 1.46,-2.94 0.44,1.04 0.9,2.03 1.46,2.94 1.85,3.05 4.44,5.41 7.49,6.17 -0.25,4.02 -1.34,7.61 -2.89,10.17 -1.76,2.96 -3.93,4.42 -6.06,4.42zm22.19 0c-2.13,0 -4.3,-1.46 -6.06,-4.42 -1.55,-2.57 -2.64,-6.15 -2.89,-10.17 3.05,-0.76 5.64,-3.12 7.49,-6.17 0.55,-0.9 1.04,-1.9 1.46,-2.94 0.44,1.04 0.9,2.03 1.46,2.94 1.85,3.05 4.44,5.41 7.49,6.17 -0.25,4.02 -1.34,7.61 -2.89,10.17 -1.76,2.96 -3.93,4.42 -6.06,4.42zm-88.31 -0.02l0 -22.63c0.31,0.67 0.64,1.29 1,1.9 1.84,3.05 4.42,5.41 7.49,6.17 -0.26,4.02 -1.35,7.61 -2.89,10.17 -1.64,2.75 -3.62,4.18 -5.6,4.39zm110.04 0c-1.99,-0.21 -3.95,-1.64 -5.59,-4.39 -1.55,-2.57 -2.64,-6.15 -2.89,-10.17 3.05,-0.76 5.64,-3.12 7.49,-6.17 0.37,-0.58 0.69,-1.23 0.99,-1.87l0 22.61zm-99.41 -18.47c-2.13,0 -4.3,-1.46 -6.06,-4.42 -1.54,-2.57 -2.64,-6.15 -2.89,-10.17 3.07,-0.76 5.65,-3.12 7.49,-6.17 0.55,-0.9 1.04,-1.9 1.47,-2.94 0.43,1.04 0.92,2.03 1.47,2.94 1.84,3.05 4.42,5.41 7.48,6.17 -0.25,4.02 -1.35,7.61 -2.88,10.17 -1.77,2.96 -3.93,4.42 -6.06,4.42zm22.19 0c-2.13,0 -4.3,-1.46 -6.06,-4.42 -1.55,-2.57 -2.64,-6.15 -2.89,-10.17 3.05,-0.76 5.64,-3.12 7.49,-6.17 0.53,-0.9 1.04,-1.9 1.46,-2.91 0.42,1.02 0.92,2.01 1.46,2.91 1.85,3.05 4.44,5.41 7.49,6.17 -0.25,4.02 -1.34,7.61 -2.89,10.17 -1.76,2.96 -3.93,4.42 -6.06,4.42zm22.19 0c-2.13,0 -4.3,-1.46 -6.06,-4.42 -1.55,-2.57 -2.64,-6.15 -2.89,-10.17 3.05,-0.76 5.64,-3.12 7.49,-6.17 0.53,-0.9 1.04,-1.9 1.46,-2.91 0.42,1.02 0.92,2.01 1.46,2.91 1.85,3.05 4.44,5.41 7.49,6.17 -0.25,4.02 -1.34,7.61 -2.89,10.17 -1.76,2.96 -3.93,4.42 -6.06,4.42zm22.19 0c-2.13,0 -4.3,-1.46 -6.06,-4.42 -1.55,-2.57 -2.64,-6.15 -2.89,-10.17 3.05,-0.76 5.64,-3.12 7.49,-6.17 0.53,-0.9 1.04,-1.9 1.46,-2.91 0.42,1.02 0.92,2.01 1.46,2.91 1.85,3.05 4.44,5.41 7.49,6.17 -0.25,4.02 -1.34,7.61 -2.89,10.17 -1.76,2.96 -3.93,4.42 -6.06,4.42zm22.19 0c-2.13,0 -4.3,-1.46 -6.06,-4.42 -1.55,-2.57 -2.64,-6.15 -2.89,-10.17 3.05,-0.76 5.64,-3.12 7.49,-6.17 0.53,-0.9 1.04,-1.9 1.46,-2.91 0.42,1.02 0.92,2.01 1.46,2.91 1.85,3.05 4.44,5.41 7.49,6.17 -0.25,4.02 -1.34,7.61 -2.89,10.17 -1.76,2.96 -3.93,4.42 -6.06,4.42zm-77.68 -18.49c-2.13,0 -4.3,-1.46 -6.06,-4.42 -1.54,-2.57 -2.64,-6.15 -2.89,-10.17 1.77,-0.44 3.38,-1.41 4.79,-2.75l8.33 0c1.41,1.34 3.03,2.31 4.79,2.75 -0.25,4.02 -1.34,7.61 -2.89,10.17 -1.76,2.96 -3.93,4.42 -6.06,4.42l0 0zm22.19 0c-2.13,0 -4.3,-1.46 -6.06,-4.42 -1.55,-2.57 -2.64,-6.15 -2.89,-10.17 1.76,-0.44 3.38,-1.41 4.79,-2.75l8.32 0c1.41,1.34 3.03,2.31 4.79,2.75 -0.25,4.02 -1.34,7.61 -2.89,10.17 -1.76,2.96 -3.93,4.42 -6.06,4.42zm22.19 0c-2.13,0 -4.3,-1.46 -6.06,-4.42 -1.55,-2.57 -2.64,-6.15 -2.89,-10.17 1.76,-0.44 3.37,-1.41 4.79,-2.75l8.32 0c1.41,1.34 3.03,2.31 4.79,2.75 -0.25,4.02 -1.34,7.61 -2.89,10.17 -1.76,2.96 -3.93,4.42 -6.06,4.42l0 0zm22.19 0c-2.13,0 -4.3,-1.46 -6.06,-4.42 -1.55,-2.57 -2.64,-6.15 -2.89,-10.17 1.76,-0.44 3.37,-1.41 4.79,-2.75l8.32 0c1.41,1.34 3.03,2.31 4.79,2.75 -0.25,4.02 -1.34,7.61 -2.89,10.17 -1.76,2.96 -3.93,4.42 -6.06,4.42zm-88.31 -0.02l0 -17.32 3.71 0c1.4,1.34 3.01,2.31 4.79,2.75 -0.26,4.02 -1.35,7.61 -2.89,10.17 -1.64,2.75 -3.62,4.18 -5.6,4.39zm110.04 0c-1.99,-0.21 -3.95,-1.64 -5.59,-4.39 -1.55,-2.57 -2.64,-6.15 -2.89,-10.17 1.76,-0.44 3.37,-1.41 4.79,-2.75l3.7 0 0 17.32z"/>
   </g>
  </g>
 </g>
</svg>
