<?xml version="1.0" encoding="UTF-8"?>
<!DOCTYPE svg PUBLIC "-//W3C//DTD SVG 1.1//EN" "http://www.w3.org/Graphics/SVG/1.1/DTD/svg11.dtd">
<!-- Creator: CorelDRAW 2020 (64-Bit Versión de evaluación) -->
<svg xmlns="http://www.w3.org/2000/svg" xml:space="preserve" width="18.5015mm" height="18.18mm" version="1.1" style="shape-rendering:geometricPrecision; text-rendering:geometricPrecision; image-rendering:optimizeQuality; fill-rule:evenodd; clip-rule:evenodd"
viewBox="0 0 127.91 125.68"
 xmlns:xlink="http://www.w3.org/1999/xlink"
 xmlns:xodm="http://www.corel.com/coreldraw/odm/2003">
 <defs>
  <style type="text/css">
   <![CDATA[
    .fil0 {fill:#FEFEFE;fill-rule:nonzero}
   ]]>
  </style>
 </defs>
 <g id="Capa_x0020_1">
  <metadata id="CorelCorpID_0Corel-Layer"/>
  <g id="_2059584185520">
   <g>
    <path class="fil0" d="M61.18 0c-24.51,-0.01 -48.09,12.17 -61.18,36.55 5.84,10.67 12.39,17.61 14.94,27.48l0 13.73c-1.31,2.79 -3.31,4.73 -3.31,7.81 0,2.5 3.2,4.97 5.78,4.97 2.53,0 5.94,-2.66 5.93,-5.29 0,-3.12 -2.01,-4.89 -3.26,-7.43l0 -8.87c4.4,-8.84 22.36,-2.58 29.08,12.54l0 22.15c-1.75,2.88 -3.74,4.66 -3.74,7.93 0,4.91 3.23,6.73 6.58,6.73 3.27,0 5.93,-1.56 5.93,-6.73 0,-2.55 -2.04,-4.57 -3.63,-8.54l0 -21.48c4.31,-10.02 15.09,-5.53 19.69,8.59l0 20.57c-1.49,2.88 -3.22,5.35 -3.22,8.88 0,3.55 2.76,6.1 5.78,6.1 2.95,0 6.1,-2.67 6.1,-6.41 0,-3.97 -1.95,-6.43 -3.52,-9.5l0 -23.24 -0.06 0c4.22,-18.13 14.37,-27.87 18.89,-14.45l0 16.43c-1.23,2.46 -2.63,4.77 -2.63,8.13 0,3.83 2.62,6.58 5.13,6.58 2.57,0 4.97,-2.62 4.97,-6.26 0,-2.98 -1.19,-5.23 -2.34,-7.57l0 -19.21c5.49,-19.19 18.26,-24 24.82,-33.63 -16.79,-24.34 -42.22,-36.54 -66.72,-36.55l0 0zm0.12 6.05c22.46,-0.17 45.64,10.38 59.39,31.85 -41.17,29.79 -77.01,29.84 -113.48,-1.36 11.22,-20.1 32.32,-30.33 54.09,-30.49l0 0zm1.29 4.41c-12.36,0 -22.37,10.02 -22.37,22.38 0,12.36 10.01,22.37 22.37,22.37 12.36,0 22.38,-10.01 22.38,-22.37 0,-12.36 -10.02,-22.38 -22.38,-22.38l0 0zm-0.15 13.48c4.43,0 8.02,3.59 8.02,8.02 0,4.43 -3.59,8.03 -8.02,8.03 -4.43,0 -8.03,-3.6 -8.03,-8.03 0,-4.43 3.6,-8.02 8.03,-8.02l0 0z"/>
   </g>
  </g>
 </g>
</svg>
