<?xml version="1.0" encoding="UTF-8"?>
<!DOCTYPE svg PUBLIC "-//W3C//DTD SVG 1.1//EN" "http://www.w3.org/Graphics/SVG/1.1/DTD/svg11.dtd">
<!-- Creator: CorelDRAW 2020 (64-Bit Versión de evaluación) -->
<svg xmlns="http://www.w3.org/2000/svg" xml:space="preserve" width="36.9266mm" height="28.9365mm" version="1.1" style="shape-rendering:geometricPrecision; text-rendering:geometricPrecision; image-rendering:optimizeQuality; fill-rule:evenodd; clip-rule:evenodd"
viewBox="0 0 299.42 234.63"
 xmlns:xlink="http://www.w3.org/1999/xlink"
 xmlns:xodm="http://www.corel.com/coreldraw/odm/2003">
 <defs>
  <style type="text/css">
   <![CDATA[
    .str0 {stroke:#727376;stroke-width:2.86;stroke-miterlimit:22.9256}
    .fil0 {fill:#FEFEFE}
   ]]>
  </style>
 </defs>
 <g id="Capa_x0020_1">
  <metadata id="CorelCorpID_0Corel-Layer"/>
  <path class="fil0 str0" d="M150.8 23.19c1.65,0.01 3.29,0.04 4.93,0.09l6.04 -8.41 7.93 -11.03 5.59 12.38 4.1 9.08c1.31,0.19 2.61,0.39 3.91,0.61l7.15 -7.92 9.11 -10.07 4.17 12.92 3.4 10.52c1.17,0.35 2.33,0.71 3.48,1.08l8.8 -7.13 10.56 -8.54 2.12 13.41 1.83 11.59c1.16,0.57 2.3,1.15 3.44,1.74l9.7 -5.23 11.96 -6.44 -0.4 13.57 -0.34 11.28c0.85,0.65 1.69,1.31 2.52,1.97l10.88 -3.34 12.98 -3.98 -3.04 13.23 -2.76 12c12.18,15.24 19.13,32.85 19.13,51.62 0,57.99 -66.39,105.01 -148.28,105.01 -81.89,0 -148.28,-47.01 -148.28,-105.01 0,-18.93 7.08,-36.7 19.46,-52.03l-2.56 -11.37 -2.98 -13.25 12.96 4.04 10.17 3.17c1.37,-1.1 2.78,-2.18 4.22,-3.24l0.15 -10.89 0.18 -13.58 11.67 6.95 8.37 4.98c1.91,-0.98 3.85,-1.92 5.83,-2.83l1.96 -11.09 2.37 -13.37 10.39 8.74 8.36 7.02c2.15,-0.64 4.32,-1.25 6.52,-1.83l3.46 -9.77 4.54 -12.8 8.81 10.33 6.53 7.65c1.58,-0.21 3.16,-0.41 4.76,-0.58l5.14 -9.61 6.4 -11.97 7.17 11.53 5.47 8.8z"/>
 </g>
</svg>
