<?xml version="1.0" encoding="UTF-8"?>
<!DOCTYPE svg PUBLIC "-//W3C//DTD SVG 1.1//EN" "http://www.w3.org/Graphics/SVG/1.1/DTD/svg11.dtd">
<!-- Creator: CorelDRAW 2020 (64-Bit Versión de evaluación) -->
<svg xmlns="http://www.w3.org/2000/svg" xml:space="preserve" width="21.3072mm" height="21.0636mm" version="1.1" style="shape-rendering:geometricPrecision; text-rendering:geometricPrecision; image-rendering:optimizeQuality; fill-rule:evenodd; clip-rule:evenodd"
viewBox="0 0 91.19 90.15"
 xmlns:xlink="http://www.w3.org/1999/xlink"
 xmlns:xodm="http://www.corel.com/coreldraw/odm/2003">
 <defs>
  <style type="text/css">
   <![CDATA[
    .str0 {stroke:#727376;stroke-width:1.51;stroke-miterlimit:22.9256}
    .fil0 {fill:#FEFEFE}
   ]]>
  </style>
 </defs>
 <g id="Capa_x0020_1">
  <metadata id="CorelCorpID_0Corel-Layer"/>
  <g id="_2059568305632">
   <path class="fil0 str0" d="M2.86 10.9c0,0 6.56,34.25 12.72,35.21 4.76,-1.66 5.92,-3.29 5.84,-6.61 -3.48,-2.89 -10.44,-4.36 -18.56,-28.6z"/>
   <path class="fil0 str0" d="M22.78 40.27c0.47,0.26 9.14,11.07 12.78,14.7 3.63,3.63 12.96,11.65 16.98,13.35 -0.31,2.02 -1.63,4.79 -4.1,6.93 -16.2,-10.06 -18.89,-13.78 -32.04,-27.33 0,0 8.14,-1.77 6.38,-7.65z"/>
   <path class="fil0 str0" d="M50.19 76.79c2.81,-2.23 4.68,-5.42 4.65,-7.89 -0.03,-2.47 40.2,6.73 35.17,16.72 -5.04,10 -25.06,-2.32 -39.81,-8.84z"/>
  </g>
 </g>
</svg>
