<?xml version="1.0" encoding="UTF-8"?>
<!DOCTYPE svg PUBLIC "-//W3C//DTD SVG 1.1//EN" "http://www.w3.org/Graphics/SVG/1.1/DTD/svg11.dtd">
<!-- Creator: CorelDRAW 2020 (64-Bit Versión de evaluación) -->
<svg xmlns="http://www.w3.org/2000/svg" xml:space="preserve" width="30.9813mm" height="19.9457mm" version="1.1" style="shape-rendering:geometricPrecision; text-rendering:geometricPrecision; image-rendering:optimizeQuality; fill-rule:evenodd; clip-rule:evenodd"
viewBox="0 0 186.03 119.77"
 xmlns:xlink="http://www.w3.org/1999/xlink"
 xmlns:xodm="http://www.corel.com/coreldraw/odm/2003">
 <defs>
  <style type="text/css">
   <![CDATA[
    .str0 {stroke:#727376;stroke-width:2.12;stroke-miterlimit:22.9256}
    .fil1 {fill:none}
    .fil0 {fill:#FEFEFE}
   ]]>
  </style>
 </defs>
 <g id="Capa_x0020_1">
  <metadata id="CorelCorpID_0Corel-Layer"/>
  <g id="_2059563048048">
   <path class="fil0 str0" d="M8.21 8.19c0,0 23.28,-8.71 30.46,-6.88 7.18,1.83 20.11,4.82 20.91,12.17 0.8,7.35 -2.21,13.13 -7.41,18.01 -5.2,4.88 -14.3,-19.59 -43.95,-23.3z"/>
   <path class="fil0 str0" d="M2.12 11.37c0,0 34.95,24.89 46.6,25.95 11.65,1.06 15.36,-23.83 15.36,-23.83 15.36,6.62 19.14,9.51 31.91,19.4 4.88,3.78 11.68,14.77 6.75,15.55 -16.31,7.14 -22.77,5.29 -32.04,6.88 -9.27,1.59 5.83,18.27 5.83,18.27 0,0 -54.28,-5.56 -74.41,-62.22z"/>
   <path class="fil0 str0" d="M81.22 72.39c0,0 18,17.42 31.41,19.14 13.4,1.73 31.81,-13.42 30.79,-19.45 -1.02,-6.03 -33.11,-24.34 -33.11,-24.34 0,0 -11.69,13.4 -30.7,13.3 -3.37,-0.02 4.78,8.2 1.61,11.35z"/>
   <path class="fil0 str0" d="M184.17 98.36c5.14,12.5 -15.46,21.61 -21.41,20.21 -25.38,-6 -42.49,-20.28 -36.12,-26.26 5.56,-5.21 24.8,-2.39 19.8,-20.86 -0.06,-0.22 29.93,7.92 37.73,26.91z"/>
   <line class="fil1 str0" x1="75.86" y1="72.83" x2="81.22" y2= "72.39" />
   <line class="fil1 str0" x1="106.13" y1="51.57" x2="103.68" y2= "48.08" />
   <line class="fil1 str0" x1="124.91" y1="89.43" x2="126.99" y2= "92.01" />
   <line class="fil1 str0" x1="147.24" y1="77.75" x2="143.2" y2= "74.02" />
  </g>
 </g>
</svg>
