<?xml version="1.0" encoding="UTF-8"?>
<!DOCTYPE svg PUBLIC "-//W3C//DTD SVG 1.1//EN" "http://www.w3.org/Graphics/SVG/1.1/DTD/svg11.dtd">
<!-- Creator: CorelDRAW 2020 (64-Bit Versión de evaluación) -->
<svg xmlns="http://www.w3.org/2000/svg" xml:space="preserve" width="21.5096mm" height="26.6749mm" version="1.1" style="shape-rendering:geometricPrecision; text-rendering:geometricPrecision; image-rendering:optimizeQuality; fill-rule:evenodd; clip-rule:evenodd"
viewBox="0 0 79.4 98.47"
 xmlns:xlink="http://www.w3.org/1999/xlink"
 xmlns:xodm="http://www.corel.com/coreldraw/odm/2003">
 <defs>
  <style type="text/css">
   <![CDATA[
    .str0 {stroke:#606062;stroke-width:1.3;stroke-miterlimit:22.9256}
    .fil1 {fill:#537473}
    .fil0 {fill:#00A859}
   ]]>
  </style>
 </defs>
 <g id="Capa_x0020_1">
  <metadata id="CorelCorpID_0Corel-Layer"/>
  <g id="_2059564589344">
   <path class="fil0 str0" d="M20.6 10.13c20.21,-14.29 38.06,-11.84 49.61,3.29 11.55,15.13 11.12,41.75 0.32,54.59 -10.8,12.84 -17.74,19.07 -42.93,25.18 -9.73,2.36 -21.82,5.6 -26.85,4.34 -2.23,-0.56 32.22,-18.52 37.54,-22.51 16.75,-12.59 -9.01,-22.03 -17.54,-26.27 -13.12,-6.53 -11.93,-30.29 -0.15,-38.61z"/>
   <path class="fil1" d="M19.1 91.54c0.96,0.51 16.11,-5.83 21.83,-9.75 5.72,-3.92 10.87,-6.71 11.35,-16.97 0.11,-2.34 -5.61,-9.74 -5.79,-12.05 -0.6,-7.82 5.03,-19.81 8.23,-22.25 4.15,-3.17 9.28,-6.59 9.28,-6.59 0,0 -13.43,2.93 -15.87,11.48 -2.44,8.55 -4.15,15.38 -4.15,15.38 0,0 -4.88,-18.31 -1.47,-26.13 3.42,-7.81 9.03,-10.26 9.03,-10.26 0,0 -11.72,4.4 -11.72,9.77 0,5.37 -1.34,9.64 -0.37,13.8 0.98,4.15 2.32,10.99 2.32,10.99 0,0 -1.71,-2.93 -4.27,-3.66 -2.56,-0.73 -4.88,1.1 -4.88,1.1 0,0 4.52,-0.98 5.62,1.71 1.1,2.69 3.85,1.5 4.36,3.59 0.48,1.97 21.22,18.39 -7.26,30.2 -1.74,0.72 -11.88,6.84 -16.24,9.66z"/>
  </g>
 </g>
</svg>
