<?xml version="1.0" encoding="UTF-8"?>
<!DOCTYPE svg PUBLIC "-//W3C//DTD SVG 1.1//EN" "http://www.w3.org/Graphics/SVG/1.1/DTD/svg11.dtd">
<!-- Creator: CorelDRAW 2020 (64-Bit Versión de evaluación) -->
<svg xmlns="http://www.w3.org/2000/svg" xml:space="preserve" width="7.942mm" height="8.2767mm" version="1.1" style="shape-rendering:geometricPrecision; text-rendering:geometricPrecision; image-rendering:optimizeQuality; fill-rule:evenodd; clip-rule:evenodd"
viewBox="0 0 10.59 11.04"
 xmlns:xlink="http://www.w3.org/1999/xlink"
 xmlns:xodm="http://www.corel.com/coreldraw/odm/2003">
 <defs>
  <style type="text/css">
   <![CDATA[
    .str0 {stroke:#606062;stroke-width:0.47;stroke-miterlimit:22.9256}
    .fil0 {fill:#00A859}
   ]]>
  </style>
 </defs>
 <g id="Capa_x0020_1">
  <metadata id="CorelCorpID_0Corel-Layer"/>
  <path class="fil0 str0" d="M5.33 1.54c0.05,-0 0.1,-0.01 0.15,-0.01 -0.05,-0.38 0.09,-0.77 0.4,-1.03 0.49,-0.4 1.22,-0.33 1.63,0.17 0.33,0.41 0.35,0.96 0.09,1.38 0.43,0.24 0.82,0.56 1.15,0.97 1.11,1.34 1.22,3.17 0.41,4.53l0 -0c0.36,1.32 0.16,1.32 1.09,2.33l-0.98 0.81c-0.67,-1.19 -0.74,-0.95 -2.01,-1.58 -1.49,0.54 -3.26,0.08 -4.37,-1.27 -0.38,-0.46 -0.64,-0.98 -0.79,-1.52 -0.49,0.37 -1.19,0.29 -1.59,-0.2 -0.41,-0.5 -0.35,-1.23 0.14,-1.63 0.41,-0.33 0.98,-0.34 1.39,-0.05 0.01,-0.06 0.03,-0.12 0.04,-0.17 -0.29,-0.04 -0.56,-0.18 -0.76,-0.42 -0.41,-0.5 -0.35,-1.23 0.14,-1.63 0.49,-0.4 1.22,-0.33 1.63,0.17 0.02,0.03 0.05,0.06 0.07,0.09 0.03,-0.03 0.07,-0.06 0.1,-0.09 -0.36,-0.5 -0.29,-1.19 0.18,-1.58 0.49,-0.4 1.22,-0.33 1.63,0.17 0.14,0.17 0.22,0.36 0.25,0.56z"/>
 </g>
</svg>
