<?xml version="1.0" encoding="UTF-8"?>
<!DOCTYPE svg PUBLIC "-//W3C//DTD SVG 1.1//EN" "http://www.w3.org/Graphics/SVG/1.1/DTD/svg11.dtd">
<!-- Creator: CorelDRAW 2020 (64-Bit Versión de evaluación) -->
<svg xmlns="http://www.w3.org/2000/svg" xml:space="preserve" width="26.2233mm" height="21.244mm" version="1.1" style="shape-rendering:geometricPrecision; text-rendering:geometricPrecision; image-rendering:optimizeQuality; fill-rule:evenodd; clip-rule:evenodd"
viewBox="0 0 104.01 84.26"
 xmlns:xlink="http://www.w3.org/1999/xlink"
 xmlns:xodm="http://www.corel.com/coreldraw/odm/2003">
 <defs>
  <style type="text/css">
   <![CDATA[
    .str0 {stroke:#606062;stroke-width:1.4;stroke-miterlimit:22.9256}
    .fil2 {fill:#825F70}
    .fil1 {fill:#8A728E}
    .fil0 {fill:#A8518A}
   ]]>
  </style>
 </defs>
 <g id="Capa_x0020_1">
  <metadata id="CorelCorpID_0Corel-Layer"/>
  <g id="_2059568331120">
   <path class="fil0 str0" d="M49.53 0.96c-13.03,1.69 -21.23,-5.14 -28.32,8.46 -1.68,3.22 -30.59,1.21 -13.62,18.17 11.96,11.96 -33.29,11.58 18.77,49.19 18.51,13.37 51.54,4.6 33.08,-5.71 -10.45,-5.84 14.6,-16.16 24.72,1.41 4.57,7.92 23.46,-7.9 8.85,-25.92 -7.74,-9.55 26.61,-29.07 0.05,-40.03 -11.81,-4.87 -26.58,21.19 -38.59,-3 -1.3,-2.62 -3.53,-2.74 -4.95,-2.56z"/>
   <path class="fil1" d="M45.76 3.53c-10.56,1.37 -17.2,-4.16 -22.94,6.85 -1.36,2.61 -30.04,10.66 -11.04,14.72 14.09,3.01 2.97,23.29 4.66,25.76 6.06,8.85 14.65,-25.15 12.94,-29.9 -2.94,-8.15 11.17,-13.6 26.72,-1.87 4.18,3.15 55.19,2.66 35.94,-5.28 -9.56,-3.94 -32.55,11.4 -42.28,-8.2 -1.05,-2.12 -2.86,-2.22 -4.01,-2.07z"/>
   <path class="fil2" d="M78.54 58.41c0.83,-2.27 9.03,14.95 10.18,11.22 3.15,-10.26 4.33,-20.38 0.99,-21.21 -0.59,-0.15 -2.39,15.63 -3.49,13.19 -1.8,-3.98 -11.62,-11.5 -18.81,-7.64 -1.5,0.81 -18.5,11.81 -19.89,16.48 -3.08,10.38 -16.06,3.72 -20.78,1.64 -3.28,-1.44 6.11,3.88 19.51,8.77 3.45,1.26 4.43,-4.79 13.59,-4.71 1.86,0.02 -6.55,-2.71 -5.65,-8.04 0.76,-4.51 9.85,-10.84 12.38,-9.97 5.75,1.97 10.36,4.67 11.98,0.26z"/>
  </g>
 </g>
</svg>
