<?xml version="1.0" encoding="UTF-8"?>
<!DOCTYPE svg PUBLIC "-//W3C//DTD SVG 1.1//EN" "http://www.w3.org/Graphics/SVG/1.1/DTD/svg11.dtd">
<!-- Creator: CorelDRAW 2020 (64-Bit Versión de evaluación) -->
<svg xmlns="http://www.w3.org/2000/svg" xml:space="preserve" width="25.6815mm" height="25.9674mm" version="1.1" style="shape-rendering:geometricPrecision; text-rendering:geometricPrecision; image-rendering:optimizeQuality; fill-rule:evenodd; clip-rule:evenodd"
viewBox="0 0 89.22 90.21"
 xmlns:xlink="http://www.w3.org/1999/xlink"
 xmlns:xodm="http://www.corel.com/coreldraw/odm/2003">
 <defs>
  <style type="text/css">
   <![CDATA[
    .str0 {stroke:#606062;stroke-width:1.23;stroke-miterlimit:22.9256}
    .fil4 {fill:none}
    .fil3 {fill:#FEFEFE}
    .fil2 {fill:#F7ADAF}
    .fil0 {fill:#F06277}
    .fil1 {fill:#ED2F59}
   ]]>
  </style>
   <clipPath id="id0">
    <path d="M6.64 20.69c8.41,-16.58 36.95,-26.09 53.84,-15.84 10.65,6.46 20.08,8.78 24.5,23.23 2.68,8.75 6.86,10.26 -0.5,25.24 -12.14,24.71 -15.96,25.97 -18.86,28.95 -4.41,4.52 -1.95,8.59 -24.51,6.97 -20.39,-1.47 -36.65,-23.03 -39.26,-30.71 -2.3,-15.87 -1.71,-25.01 4.8,-37.83z"/>
   </clipPath>
 </defs>
 <g id="Capa_x0020_1">
  <metadata id="CorelCorpID_0Corel-Layer"/>
  <path class="fil0" d="M6.64 20.69c8.41,-16.58 36.95,-26.09 53.84,-15.84 10.65,6.46 20.08,8.78 24.5,23.23 2.68,8.75 6.86,10.26 -0.5,25.24 -12.14,24.71 -15.96,25.97 -18.86,28.95 -4.41,4.52 -1.95,8.59 -24.51,6.97 -20.39,-1.47 -36.65,-23.03 -39.26,-30.71 -2.3,-15.87 -1.71,-25.01 4.8,-37.83z"/>
  <g style="clip-path:url(#id0)">
   <g id="_2059564559728">
    <path id="1" class="fil1" d="M51.33 86.38c-17.24,2.72 -29,-7.6 -26.79,-6.83 7.23,2.51 18,2.22 26.46,2.44 2.16,0.06 12.76,-6.68 18.71,-14.78 3.79,-5.16 10.31,-16.06 10,-19.07 -0.66,-6.41 0.08,-21.27 1.96,-21.07 2.86,0.3 5.61,19.35 2.92,25.56 -3.03,7 -15.01,23.71 -18.06,26.5 -6.85,4.75 -8.18,6.14 -15.21,7.25z"/>
    <path class="fil2" d="M5.13 30.12c11.53,-23.94 17.47,-24.89 48.74,-26.73 6.39,-0.38 -21.2,11.96 -30.17,21.39 -2.75,2.89 7.44,31.95 -17.43,30.84 -1.33,-9.15 -4.74,-18.03 -1.14,-25.5z"/>
    <path class="fil3" d="M27.44 10.24c-6.72,6.45 -14.01,3.86 -17.92,15.17 7.49,0 7.72,-11 18.84,-12.37 1.78,-0.22 8.11,-5.9 -0.92,-2.8z"/>
   </g>
  </g>
  <path class="fil4 str0" d="M6.64 20.69c8.41,-16.58 36.95,-26.09 53.84,-15.84 10.65,6.46 20.08,8.78 24.5,23.23 2.68,8.75 6.86,10.26 -0.5,25.24 -12.14,24.71 -15.96,25.97 -18.86,28.95 -4.41,4.52 -1.95,8.59 -24.51,6.97 -20.39,-1.47 -36.65,-23.03 -39.26,-30.71 -2.3,-15.87 -1.71,-25.01 4.8,-37.83z"/>
 </g>
</svg>
