<?xml version="1.0" encoding="UTF-8"?>
<!DOCTYPE svg PUBLIC "-//W3C//DTD SVG 1.1//EN" "http://www.w3.org/Graphics/SVG/1.1/DTD/svg11.dtd">
<!-- Creator: CorelDRAW 2020 (64-Bit Versión de evaluación) -->
<svg xmlns="http://www.w3.org/2000/svg" xml:space="preserve" width="17.8827mm" height="18.4032mm" version="1.1" style="shape-rendering:geometricPrecision; text-rendering:geometricPrecision; image-rendering:optimizeQuality; fill-rule:evenodd; clip-rule:evenodd"
viewBox="0 0 119.54 123.02"
 xmlns:xlink="http://www.w3.org/1999/xlink"
 xmlns:xodm="http://www.corel.com/coreldraw/odm/2003">
 <defs>
  <style type="text/css">
   <![CDATA[
    .fil0 {fill:#FEFEFE;fill-rule:nonzero}
   ]]>
  </style>
 </defs>
 <g id="Capa_x0020_1">
  <metadata id="CorelCorpID_0Corel-Layer"/>
  <g id="_2059595315280">
   <g>
    <path class="fil0" d="M38.51 0l-4.33 5.79 4.33 5.79 4.34 -5.79 -4.34 -5.79zm52.24 1.94l-5.69 7.59 5.69 7.59 5.68 -7.59 -5.68 -7.59zm-33.22 4.72l-5.68 7.59 5.68 7.59 5.69 -7.59 -5.69 -7.59 0 0zm-48.68 0.86l-4.33 5.79 4.33 5.79 4.34 -5.79 -4.34 -5.79 -0 0zm99.72 6.33l-3.47 7.5 -7.51 3.47 7.51 3.61 3.47 7.35 3.46 -7.5 7.51 -3.47 -7.36 -3.47 -3.6 -7.5 0 -0zm-76.7 3.37l-4.35 9.43 -9.43 4.35 9.43 4.53 4.35 9.24 4.34 -9.43 9.43 -4.35 -9.24 -4.35 -4.53 -9.43 0 0zm53.18 2.35l-5.69 7.59 5.69 7.59 5.68 -7.59 -5.68 -7.59zm-25.54 16.09l-4.72 6.29 4.72 6.3 4.72 -6.3 -4.72 -6.29zm26.27 7.92l-3.57 7.74 -7.74 3.57 7.74 3.72 3.57 7.6 3.58 -7.74 7.74 -3.58 -7.59 -3.57 -3.73 -7.74 0 -0zm-68.94 1.78l-4.34 5.78 4.34 5.79 4.33 -5.79 -4.33 -5.78 0 0zm24 6.9l-4.33 5.79 4.33 5.79 4.34 -5.79 -4.34 -5.79 -0 0zm18.53 6.13c-1.96,0.03 -3.65,1.11 -5.53,2.56 -11.74,9.05 -26.6,22.19 -26.78,29.53 -2.1,0.25 -3.97,1.34 -3.97,3.27 0,2.87 3.92,3.9 6.79,3.12 -0.03,0.18 -0.06,0.36 -0.06,0.55 0,4.1 8.01,4.45 9.5,1.14 8.82,2.36 19.64,2.75 29.53,1.57 0.6,3.81 8.66,3.87 9.61,0.26 2.61,1.92 7.37,2.03 10.25,0.35 2.72,1.73 8.26,0.88 8.26,-2.5 0,-0.5 -0.12,-0.94 -0.33,-1.33 1.49,-0.65 2.57,-1.78 2.57,-3.41 0,-3.65 -5.39,-4.77 -8.85,-3.47 -1.16,-7.95 -15.22,-21.61 -25.72,-29.5 -2.06,-1.55 -3.74,-2.17 -5.27,-2.14l-0 0zm-44.74 28.66c-2.74,0.01 -5.48,1.28 -5.48,3.8 0,5.04 10.96,4.95 10.96,0 0,-2.54 -2.74,-3.81 -5.48,-3.8l0 0zm99.55 3.32c-2.43,0.01 -4.87,1.13 -4.87,3.32 0,4.52 9.74,4.48 9.74,0 0,-2.24 -2.43,-3.33 -4.87,-3.32l0 0zm-109.32 4.01c-2.43,0 -4.87,1.13 -4.87,3.37 0,4.48 9.74,4.39 9.74,0 0,-2.26 -2.43,-3.38 -4.87,-3.37zm104.97 5.99c-2.74,0.01 -5.48,1.28 -5.48,3.8 0,5.04 10.96,4.95 10.96,0 0,-2.54 -2.73,-3.81 -5.47,-3.8l0 0zm-69.82 1.68c-1.53,0 -3.06,0.45 -3.98,1.34 -2.86,-1.25 -7.62,-0.28 -7.62,2.85 0,3.65 6.46,4.26 8.85,1.99 2.86,1.22 7.62,0.26 7.62,-2.81 0,-2.26 -2.43,-3.38 -4.87,-3.37l-0 0zm22.24 0.41c-2.43,0.01 -4.87,1.13 -4.87,3.32 0,4.52 9.74,4.48 9.74,0 0,-2.24 -2.43,-3.33 -4.87,-3.32l0 0zm-48.95 2.39c-2.43,0 -4.87,1.13 -4.87,3.37 0,4.48 9.74,4.39 9.74,0 0,-2.26 -2.43,-3.38 -4.87,-3.37l0 0zm76.11 3.36c-2.43,0.01 -4.87,1.13 -4.87,3.33 0,2.52 3.02,3.62 5.7,3.33 -0.18,0.4 -0.28,0.84 -0.28,1.32 0,4.8 9.31,5.23 11.16,1.41 2.63,0.21 5.51,-0.91 5.51,-3.35 0,-3.75 -6.83,-4.3 -9.05,-1.8 -1.1,-0.23 -2.31,-0.25 -3.43,-0.05 0.09,-0.27 0.14,-0.56 0.14,-0.87 0,-2.24 -2.43,-3.34 -4.87,-3.33l0 0zm-38.48 0.89c-2.79,0.01 -5.58,1.3 -5.58,3.82 0,5.18 11.16,5.14 11.16,0 0,-2.57 -2.79,-3.83 -5.58,-3.82l0 0zm25.65 4.51c-3.2,0.01 -6.4,1.49 -6.4,4.44 0,5.89 12.8,5.77 12.8,0 0,-2.97 -3.2,-4.44 -6.4,-4.44l0 0zm-39.01 1.71c-2.79,0.01 -5.58,1.3 -5.58,3.82 0,5.18 11.16,5.14 11.16,0 0,-2.57 -2.79,-3.83 -5.58,-3.82l-0 0z"/>
   </g>
  </g>
 </g>
</svg>
