<?xml version="1.0" encoding="UTF-8"?>
<!DOCTYPE svg PUBLIC "-//W3C//DTD SVG 1.1//EN" "http://www.w3.org/Graphics/SVG/1.1/DTD/svg11.dtd">
<!-- Creator: CorelDRAW 2020 (64-Bit Versión de evaluación) -->
<svg xmlns="http://www.w3.org/2000/svg" xml:space="preserve" width="18.8414mm" height="16.4838mm" version="1.1" style="shape-rendering:geometricPrecision; text-rendering:geometricPrecision; image-rendering:optimizeQuality; fill-rule:evenodd; clip-rule:evenodd"
viewBox="0 0 107.33 93.9"
 xmlns:xlink="http://www.w3.org/1999/xlink"
 xmlns:xodm="http://www.corel.com/coreldraw/odm/2003">
 <defs>
  <style type="text/css">
   <![CDATA[
    .fil0 {fill:#FEFEFE;fill-rule:nonzero}
   ]]>
  </style>
 </defs>
 <g id="Capa_x0020_1">
  <metadata id="CorelCorpID_0Corel-Layer"/>
  <g id="_2059607045600">
   <g>
    <path class="fil0" d="M36.95 0c-0.15,0.18 -0.27,0.3 -0.47,0.59 -0.67,0.95 -1.52,2.4 -2.45,4.17 -1.86,3.53 -4.05,8.31 -6.12,13.23 -2.06,4.92 -4.01,9.98 -5.4,14.07 -0.69,2.05 -1.25,3.85 -1.61,5.25 -0.36,1.4 -0.46,2.54 -0.46,2.52 0.12,1.44 1.93,4.78 4.77,7.85 2.7,2.92 6.23,5.72 9.57,7.49l5.22 -0.81c-1.8,-8.02 -2.96,-17.26 -2.53,-29.31l4.06 0.14c-0.42,11.85 0.72,20.74 2.5,28.54l3.77 -0.59c3.03,-2.78 6.05,-6.67 8.24,-10.41 2.28,-3.9 3.51,-7.82 3.39,-9.26 0,0.01 -0.28,-1.03 -0.85,-2.27 -0.58,-1.24 -1.41,-2.83 -2.43,-4.6 -2.03,-3.55 -4.75,-7.88 -7.58,-12.03 -2.82,-4.15 -5.75,-8.13 -8.13,-10.98 -1.19,-1.43 -2.26,-2.57 -3.04,-3.27 -0.19,-0.17 -0.28,-0.22 -0.42,-0.33l0 0zm51.05 5.52c-0.16,0.11 -0.26,0.16 -0.47,0.33 -0.81,0.65 -1.92,1.7 -3.18,3.02 -2.5,2.63 -5.6,6.3 -8.6,10.12 -3.01,3.82 -5.93,7.81 -8.13,11.08 -1.1,1.64 -2.01,3.1 -2.65,4.24 -0.64,1.14 -0.97,2.13 -0.96,2.05 -0.19,1.22 0.73,4.78 2.69,8.35 1.87,3.4 4.54,6.94 7.27,9.48l5.28 0.79c3.03,-8.21 4.37,-16.47 5.26,-24.84l4.04 0.43c-0.88,8.26 -2.21,16.61 -5.21,25.02l3.14 0.47c3.39,-1.63 7.02,-4.23 9.85,-6.93 2.96,-2.83 4.93,-5.97 5.12,-7.19 -0.01,0.08 -0.03,-0.95 -0.29,-2.23 -0.26,-1.28 -0.69,-2.94 -1.23,-4.82 -1.09,-3.76 -2.67,-8.42 -4.37,-12.95 -1.7,-4.53 -3.53,-8.93 -5.12,-12.17 -0.79,-1.62 -1.53,-2.95 -2.11,-3.8 -0.15,-0.22 -0.23,-0.29 -0.34,-0.44l0 0zm-20.49 4.01c-0.18,0.11 -0.33,0.2 -0.59,0.4 -0.78,0.6 -1.85,1.58 -3.04,2.78 -2.01,2.02 -4.4,4.71 -6.8,7.58 0.93,1.51 1.79,2.96 2.57,4.32 1.05,1.84 1.93,3.5 2.58,4.9 0.14,0.3 0.26,0.57 0.38,0.83 0.53,-0.85 1.09,-1.7 1.63,-2.52 2.21,-3.3 5.09,-7.22 8.06,-11.01 -0.75,-1.34 -1.47,-2.59 -2.15,-3.67 -0.85,-1.37 -1.64,-2.48 -2.24,-3.18 -0.18,-0.21 -0.28,-0.29 -0.41,-0.42l0 0zm-49.47 5.12c-0.14,0.15 -0.26,0.28 -0.46,0.54 -0.59,0.8 -1.34,2.02 -2.16,3.51 -1.64,2.97 -3.54,6.99 -5.32,11.11 -0.09,0.21 -0.18,0.42 -0.27,0.63 2.29,1.99 4.43,3.97 6.23,5.75 0.24,0.24 0.51,0.52 0.75,0.76 0.05,-0.21 0.1,-0.41 0.16,-0.64 0.4,-1.56 0.98,-3.44 1.7,-5.55 1.2,-3.53 2.77,-7.7 4.49,-11.89 -0.51,-0.49 -1.05,-1 -1.58,-1.48 -1.2,-1.08 -2.26,-1.94 -3.02,-2.45 -0.23,-0.15 -0.35,-0.2 -0.51,-0.29l0 0zm89.28 6.29c-0.2,0.18 -0.4,0.35 -0.6,0.54 -1.55,1.42 -3.33,3.19 -5.17,5.13 0.87,2.53 1.65,4.97 2.28,7.15 0.57,1.95 1.02,3.69 1.31,5.14 0.04,0.21 0.08,0.39 0.11,0.58 0.68,-0.84 1.38,-1.72 2.07,-2.55l0 -15.99 0 0zm-107.33 6.65l0 37.5 8.34 -2.89c2.68,-2.96 5.19,-6.83 6.86,-10.38 1.74,-3.69 2.32,-7.23 2.1,-8.02 0.07,0.25 -0.32,-0.58 -1.06,-1.47 -0.74,-0.88 -1.79,-2.01 -3.05,-3.26 -2.52,-2.5 -5.85,-5.49 -9.26,-8.32 -1.27,-1.07 -2.62,-2.15 -3.94,-3.17l-0 0.01zm64.92 17.72c-0.46,0.89 -0.96,1.79 -1.46,2.66 -2.48,4.25 -5.84,8.59 -9.44,11.78l-0.45 0.4 -15.56 2.42 -0.58 -0.29c-4.09,-2.03 -8.11,-5.25 -11.26,-8.66 -0.48,-0.53 -0.98,-1.08 -1.43,-1.62 -0.47,1.5 -1.14,3.07 -1.92,4.72 -1.92,4.07 -4.7,8.38 -7.86,11.77l-0.34 0.37 -14.61 0.53 0 4.46c0.56,-0.75 1.25,-1.41 1.98,-2.02 2.35,-1.92 5.28,-3.27 7.9,-3.62 0.43,-0.06 0.87,-0.09 1.33,-0.1 0.15,-0 0.3,-0 0.46,0 1.83,0.04 3.79,0.49 5.57,1.29 1.19,0.54 2.3,1.24 3.16,2.27 0.86,1.03 1.43,2.51 1.21,4.03 -0.34,2.37 -1.88,4.23 -3.75,5.56 -1.87,1.33 -4.15,2.22 -6.5,2.69 -2.35,0.47 -4.77,0.53 -6.96,-0.01 -1.66,-0.41 -3.26,-1.22 -4.39,-2.53l0 12.48 91.39 0c-0.25,-0.42 -0.46,-0.86 -0.62,-1.32 -0.66,-1.89 -0.23,-3.89 0.71,-5.42 0.94,-1.54 2.34,-2.77 3.91,-3.79 2.76,-1.79 6.07,-2.98 9.12,-3.11 0.22,-0.01 0.43,-0.01 0.65,-0.01 0.21,0 0.43,0.01 0.64,0.02 0.51,0.03 1.01,0.1 1.52,0.21l-0 -16.82c-1.66,-1.81 -3.15,-3.78 -4.38,-5.73 -1.43,-2.28 -2.6,-4.47 -3.07,-6.58 -0.24,0.23 -0.5,0.49 -0.74,0.72 -3.27,3.13 -7.38,6.09 -11.47,7.95l-0.55 0.25 -15.01 -2.24 -0.45 -0.4c-3.33,-2.97 -6.35,-7 -8.52,-10.95 -0.85,-1.55 -1.59,-3.06 -2.16,-4.53l3.94 3.17zm42.4 -1.9l-0.04 0.05c-1.09,1.42 -2.01,2.7 -2.64,3.68 -0.63,0.99 -0.95,1.88 -0.9,1.64 -0.14,0.8 0.69,3.89 2.63,6.98 0.3,0.47 0.62,0.96 0.94,1.41l0 -13.76 0 -0zm-46.35 20.07c1.86,-0.01 3.7,0.16 5.4,0.45 2.17,0.37 4.94,1.07 7.24,2.12 1.15,0.52 2.18,1.09 3.02,2.03 0.42,0.47 0.8,1.07 0.95,1.83 0.15,0.76 -0,1.63 -0.37,2.3 -1.13,2.04 -3.22,3.09 -5.56,3.8 -2.34,0.7 -5.06,1.03 -7.85,1.06 -5.59,0.06 -11.36,-0.85 -14.89,-3.49 -0.72,-0.54 -1.25,-1.39 -1.4,-2.23 -0.15,-0.84 0.02,-1.61 0.28,-2.26 0.53,-1.3 1.46,-2.27 2.59,-2.99 2.71,-1.72 6.25,-2.47 9.79,-2.58 0.27,-0.01 0.53,-0.01 0.8,-0.01l0 -0zm0.51 4.14c-3.47,0.03 -7.03,0.69 -8.92,1.89 -0.4,0.25 -0.77,0.7 -0.93,0.98 2.14,1.38 7.33,2.56 12.13,2.51 2.5,-0.03 4.91,-0.34 6.72,-0.88 1.44,-0.43 2.4,-1.03 2.88,-1.52 -0.28,-0.23 -0.75,-0.54 -1.44,-0.86 -1.75,-0.8 -4.37,-1.49 -6.24,-1.81 -1.09,-0.19 -2.29,-0.29 -3.51,-0.31 -0.15,-0 -0.33,-0 -0.48,-0 -0.07,0 -0.14,0 -0.21,0l0 0zm-50.55 4.57c-0.18,0.01 -0.35,0.02 -0.51,0.04 -1.53,0.21 -4.17,1.34 -5.88,2.74 -0.86,0.7 -1.48,1.46 -1.75,2.03 -0.27,0.57 -0.27,0.83 -0.08,1.23 0.38,0.8 1.21,1.41 2.64,1.76 1.43,0.35 3.33,0.35 5.19,-0.02 1.86,-0.37 3.67,-1.11 4.95,-2.02 1.28,-0.91 1.96,-1.9 2.09,-2.83 0.05,-0.32 0,-0.48 -0.3,-0.85 -0.31,-0.37 -0.93,-0.82 -1.73,-1.18 -1.2,-0.54 -2.8,-0.86 -4.04,-0.91 -0.12,-0.01 -0.24,-0.01 -0.35,-0.01 -0.08,0 -0.16,0 -0.23,0l-0 0zm94.81 12.11c-2.05,0.01 -5.27,0.99 -7.55,2.47 -1.22,0.79 -2.17,1.71 -2.66,2.51 -0.49,0.8 -0.57,1.32 -0.34,1.97 0.37,1.06 1.35,1.97 3,2.64 0.01,0.01 0.03,0.01 0.04,0.02l9.09 0 0 -9.2c-0.66,-0.22 -1.27,-0.36 -1.77,-0.39 -0.13,-0.01 -0.26,-0.01 -0.39,-0.01l0.59 0z"/>
   </g>
  </g>
 </g>
</svg>
