<?xml version="1.0" encoding="UTF-8"?>
<!DOCTYPE svg PUBLIC "-//W3C//DTD SVG 1.1//EN" "http://www.w3.org/Graphics/SVG/1.1/DTD/svg11.dtd">
<!-- Creator: CorelDRAW 2020 (64-Bit Versión de evaluación) -->
<svg xmlns="http://www.w3.org/2000/svg" xml:space="preserve" width="18.3604mm" height="18.2682mm" version="1.1" style="shape-rendering:geometricPrecision; text-rendering:geometricPrecision; image-rendering:optimizeQuality; fill-rule:evenodd; clip-rule:evenodd"
viewBox="0 0 102.01 101.49"
 xmlns:xlink="http://www.w3.org/1999/xlink"
 xmlns:xodm="http://www.corel.com/coreldraw/odm/2003">
 <defs>
  <style type="text/css">
   <![CDATA[
    .fil0 {fill:#FEFEFE;fill-rule:nonzero}
   ]]>
  </style>
 </defs>
 <g id="Capa_x0020_1">
  <metadata id="CorelCorpID_0Corel-Layer"/>
  <g id="_2059602412544">
   <g>
    <path class="fil0" d="M26.58 0c0.27,-0 0.54,0 0.81,0.01 8.57,0.22 17.38,4.58 23.54,13.42 7.67,-10.85 19.93,-14.94 30.54,-12.76 11.46,2.35 21,12.24 20.51,27.64 -0.51,16.11 -12.15,28.52 -23.8,38.99 -5.83,5.24 -11.71,10.03 -16.35,14.52 -4.64,4.49 -7.96,8.69 -8.95,12.38l-1.96 7.3 -1.95 -7.3c-0.86,-3.22 -4.24,-7.39 -9.01,-11.92 -4.77,-4.53 -10.83,-9.49 -16.79,-14.9 -11.9,-10.83 -23.65,-23.59 -23.16,-39.19 0.47,-15.1 9.79,-25.04 20.96,-27.54 1.83,-0.41 3.71,-0.62 5.61,-0.63l-0 0zm49.4 4.14c-8.59,-0.06 -17.71,4.35 -23.3,14.03l-1.68 2.91 0 25.76c0.32,-0.04 0.64,-0.06 0.98,-0.06 4.49,0 8.13,3.64 8.13,8.13 0,4.49 -3.64,8.13 -8.13,8.13 -0.33,0 -0.65,-0.02 -0.98,-0.06l0 25.49c1.9,-3.26 4.72,-6.38 8.02,-9.56 0.23,-0.22 0.46,-0.44 0.69,-0.66 -2.96,-0.45 -5.24,-3.01 -5.24,-6.1 0,-3.41 2.77,-6.18 6.18,-6.18 3.32,0 6.02,2.61 6.17,5.89 2.82,-2.45 5.76,-4.97 8.66,-7.57 11.46,-10.3 22.01,-21.9 22.46,-36.11 0.44,-13.72 -7.5,-21.54 -17.27,-23.54 -1.53,-0.31 -3.1,-0.48 -4.69,-0.49l0 0zm-8.83 9.05c4.49,0 8.13,3.64 8.13,8.13 0,1 -0.18,1.96 -0.52,2.84 0.03,-0 0.06,0 0.09,0 2.63,0 4.77,2.13 4.77,4.77 0,2.63 -2.13,4.77 -4.77,4.77 -2.63,0 -4.77,-2.13 -4.77,-4.77l0 -0.03c-0.91,0.35 -1.9,0.54 -2.93,0.54 -4.49,0 -8.13,-3.64 -8.13,-8.13 0,-4.49 3.64,-8.13 8.13,-8.13l0 0zm-5.7 18.13c2.35,0.12 4.21,2.07 4.21,4.44 0,2.45 -1.99,4.44 -4.44,4.44 -2.45,0 -4.44,-1.99 -4.44,-4.44 0,-2.45 1.99,-4.44 4.44,-4.44 0.08,0 0.15,-0 0.23,0l0 0zm7.33 11.36c3.11,0 5.63,2.52 5.63,5.63 0,3.11 -2.52,5.64 -5.63,5.64 -3.11,0 -5.64,-2.53 -5.64,-5.64 0,-3.11 2.53,-5.63 5.64,-5.63z"/>
   </g>
  </g>
 </g>
</svg>
