<?xml version="1.0" encoding="UTF-8"?>
<!DOCTYPE svg PUBLIC "-//W3C//DTD SVG 1.1//EN" "http://www.w3.org/Graphics/SVG/1.1/DTD/svg11.dtd">
<!-- Creator: CorelDRAW 2020 (64-Bit Versión de evaluación) -->
<svg xmlns="http://www.w3.org/2000/svg" xml:space="preserve" width="15.7236mm" height="17.5129mm" version="1.1" style="shape-rendering:geometricPrecision; text-rendering:geometricPrecision; image-rendering:optimizeQuality; fill-rule:evenodd; clip-rule:evenodd"
viewBox="0 0 92.96 103.54"
 xmlns:xlink="http://www.w3.org/1999/xlink"
 xmlns:xodm="http://www.corel.com/coreldraw/odm/2003">
 <defs>
  <style type="text/css">
   <![CDATA[
    .fil0 {fill:#FEFEFE;fill-rule:nonzero}
   ]]>
  </style>
 </defs>
 <g id="Capa_x0020_1">
  <metadata id="CorelCorpID_0Corel-Layer"/>
  <g id="_2059549954448">
   <g>
    <path class="fil0" d="M49.2 0c-11.65,0 -23,7.98 -31.91,19.67 -8.91,11.69 -15.26,26.96 -17.06,40.63 -1.71,12.97 6.61,23.6 18.85,31.26 12.24,7.66 28.24,11.99 40.33,11.99 12.13,0 20.27,-3.76 25.65,-10.79 4.74,-6.2 7.34,-15.18 7.9,-26.69 -2.12,2.24 -4.67,4.12 -7.52,5.61 -6.14,3.21 -13.67,4.69 -21.55,4.39 -15.76,-0.6 -33.04,-8.41 -42.92,-24.8l-0.03 -0.05 -0.03 -0.06c-1.02,-1.99 -2.2,-4.8 -2.37,-7.75 -0.08,-1.47 0.1,-3.03 0.85,-4.45 0.76,-1.42 2.13,-2.61 3.91,-3.25 13.8,-4.92 25.82,-6.91 36.61,-6.95 0.72,-0 1.43,0.01 2.14,0.02 9,0.18 17.12,1.73 24.7,4.03 -1.33,-3.07 -2.85,-6.06 -4.53,-8.89 -1.73,1.46 -3.96,2.35 -6.39,2.35 -5.46,0 -9.93,-4.47 -9.93,-9.92 0,-3.14 1.48,-5.95 3.78,-7.77 -6.21,-5.33 -13.22,-8.55 -20.48,-8.55zm-6.65 6.38c5.46,0 9.93,4.47 9.93,9.92 0,5.46 -4.47,9.91 -9.93,9.91 -5.46,0 -9.93,-4.46 -9.93,-9.91 0,-5.46 4.47,-9.92 9.93,-9.92l0 0zm0 4.08c-3.26,0 -5.85,2.59 -5.85,5.84 0,3.25 2.59,5.84 5.85,5.84 3.26,0 5.85,-2.59 5.85,-5.84 0,-3.25 -2.59,-5.84 -5.85,-5.84l0 0zm33.28 0.03c-3.26,0 -5.85,2.59 -5.85,5.84 0,3.25 2.59,5.84 5.85,5.84 3.26,0 5.84,-2.59 5.84,-5.84 0,-3.25 -2.59,-5.84 -5.84,-5.84l0 0zm-15.59 22.28l13.76 17.29 5.33 -15.06c-5.95,-1.39 -12.25,-2.23 -19.09,-2.23l0 0zm-3.12 0.06c-6.62,0.24 -13.75,1.27 -21.55,3.32l12.06 14.85 9.49 -18.17 0 0zm23.61 2.51l11.11 13.85c-0.74,-3.84 -1.81,-7.71 -3.16,-11.5 -2.59,-0.88 -5.23,-1.67 -7.94,-2.35l0 -0zm-48.13 1.62c-2.23,0.64 -4.51,1.37 -6.85,2.18l4.16 6.92 2.69 -9.1 0 0zm2.47 11.22l-6.85 6.33c2.79,3.42 5.98,6.32 9.42,8.71l-2.57 -15.04 -0 0zm49.42 4.88l-4.22 16.46c1.14,-0.44 2.24,-0.92 3.27,-1.47 3.88,-2.02 6.97,-4.74 9,-8.11l-8.05 -6.88 -0 0zm-31.47 1.01l-11.97 11.31c5.23,3.02 10.89,4.97 16.52,5.93l-4.56 -17.24 0 0zm16.93 0.12l-9.51 17.52c1.2,0.13 2.4,0.23 3.59,0.28 4.99,0.19 9.79,-0.41 14.05,-1.71l-8.13 -16.09 0 -0z"/>
   </g>
  </g>
 </g>
</svg>
