<?xml version="1.0" encoding="UTF-8"?>
<!DOCTYPE svg PUBLIC "-//W3C//DTD SVG 1.1//EN" "http://www.w3.org/Graphics/SVG/1.1/DTD/svg11.dtd">
<!-- Creator: CorelDRAW 2020 (64-Bit Versión de evaluación) -->
<svg xmlns="http://www.w3.org/2000/svg" xml:space="preserve" width="16.6186mm" height="15.0376mm" version="1.1" style="shape-rendering:geometricPrecision; text-rendering:geometricPrecision; image-rendering:optimizeQuality; fill-rule:evenodd; clip-rule:evenodd"
viewBox="0 0 103.55 93.7"
 xmlns:xlink="http://www.w3.org/1999/xlink"
 xmlns:xodm="http://www.corel.com/coreldraw/odm/2003">
 <defs>
  <style type="text/css">
   <![CDATA[
    .fil0 {fill:#FEFEFE;fill-rule:nonzero}
   ]]>
  </style>
 </defs>
 <g id="Capa_x0020_1">
  <metadata id="CorelCorpID_0Corel-Layer"/>
  <g id="_2095809926992">
   <g>
    <path class="fil0" d="M20.06 0c-6.01,0 -10.92,5.04 -10.92,11.41 0,6.37 4.91,11.42 10.92,11.42 6.01,0 10.92,-5.05 10.92,-11.42 0,-6.37 -4.9,-11.41 -10.92,-11.41zm68.01 2.84c-0.37,-0 -0.74,0.02 -1.11,0.05 -1.33,0.13 -2.53,0.53 -3.64,1.11 5.98,4.98 9.74,11.53 12.08,18.74 2.5,-2.3 3.95,-5.75 3.56,-9.57 -0.59,-5.93 -5.37,-10.3 -10.89,-10.33l0 0zm-30.1 25.63c-0.09,0 -0.18,0 -0.28,0.01 -2.49,0.1 -6.02,1.52 -10.71,5.3 0.84,1.58 1.44,3.39 1.85,5.36 0.51,2.4 0.75,5.07 0.71,7.86 5.09,4.91 8.36,11.76 10.01,18.76 4.22,-7.81 6.54,-19.98 5.27,-28.2 -0.75,-4.88 -2.58,-7.99 -5.16,-8.83 -0.49,-0.16 -1.06,-0.26 -1.7,-0.26l0 -0zm18.22 1.85c-2.21,0.03 -4.91,0.82 -8.25,2.72 0.39,1.24 0.69,2.55 0.9,3.9 0.44,2.86 0.54,6 0.34,9.23 5.87,5.54 9.77,13.85 11.53,22.22 4.59,-6.43 6.92,-18.13 5.38,-26.78 -0.88,-4.92 -2.9,-8.66 -5.74,-10.27 -1.15,-0.66 -2.52,-1.04 -4.15,-1.02l0 0zm-37.31 2.02c-2.29,-0 -5.79,1.62 -10.39,6.58 0.3,0.58 0.57,1.19 0.79,1.83 1.05,3 1.39,6.69 0.9,10.57 0,0 -0,0 0,0.01 4.41,6.45 7.26,12.32 8.86,17.45 5.54,-8.58 7.47,-20.94 5.81,-28.8 -0.47,-2.23 -1.21,-4.07 -2.1,-5.34 -0.89,-1.27 -1.84,-1.95 -2.96,-2.21 -0.28,-0.06 -0.58,-0.09 -0.92,-0.09l0 0zm50.35 2.01c-0.37,0 -0.74,0.03 -1.12,0.08 0.91,1.97 1.56,4.16 1.97,6.47 0.42,2.33 0.61,4.79 0.6,7.3 5.66,6.94 8.09,17.02 7.8,26.32 5.26,-6.96 6.12,-16.94 3.97,-25.3 -1.29,-5.01 -3.66,-9.35 -6.52,-11.96 -2.06,-1.88 -4.25,-2.93 -6.7,-2.91l-0 0zm-67.79 4.01c-1.72,0.09 -4.74,1.73 -8.43,6.44 4.81,6.42 7.6,12.35 8.87,17.47 4.43,-6.89 5.22,-15.47 3.56,-20.16 -0.48,-1.36 -1.13,-2.36 -1.8,-2.95 -0.67,-0.59 -1.31,-0.83 -2.21,-0.79l0 0zm-15.12 8.13c-6.26,0.14 -8.02,8.44 -4.59,15.52 3.21,-2.74 5.97,-7.51 5.93,-15.43 -0.47,-0.07 -0.91,-0.1 -1.34,-0.09l0 0zm5.21 3.24c-0.62,6.67 -3.16,11.5 -6.42,14.63 2.31,6.04 5.12,9.43 7.3,10.71 1.16,0.68 2.09,0.81 2.82,0.67 0.74,-0.14 1.39,-0.54 2.01,-1.41 1.24,-1.74 2,-5.45 0.82,-10.57 -0.91,-3.96 -2.95,-8.74 -6.54,-14.03l0 0zm57.04 1.79c-1.22,7.54 -4,15.03 -8.02,20.16 0.43,4.06 0.34,8.01 -0.26,11.5 -0.41,2.39 -1.09,4.64 -2.06,6.54 6.75,4.38 11.15,4.61 13.97,3.07 2.86,-1.56 4.79,-5.5 5.34,-10.91 0.96,-9.41 -2.52,-22.42 -8.97,-30.37zm-19.45 1.14c-1.03,7.52 -3.92,15.35 -8.83,21.29 0.74,4.44 0.43,8.16 -0.89,10.99 2.63,2.86 4.96,4.67 6.88,5.64 2.05,1.04 3.53,1.13 4.72,0.79 2.37,-0.69 4.43,-3.85 5.3,-8.87 1.5,-8.66 -0.89,-21.57 -7.17,-29.83l-0 0zm41.05 2.18c-1.11,7.38 -4.02,14.44 -8.65,18.8 0.31,3 0.33,5.92 0.05,8.66 -0.38,3.77 -1.36,7.27 -3.13,9.99 4,2.04 6.81,1.69 9.17,0.1 2.65,-1.79 4.82,-5.69 5.93,-10.69 1.82,-8.22 0.7,-19.08 -3.37,-26.86l0 -0zm-61.22 2.04c-1.23,3.84 -3.28,7.65 -6.22,10.98 0.14,3.52 -0.58,6.47 -2.06,8.65 3.2,5.04 6.47,7.85 8.98,8.88 2.74,1.13 4.3,0.62 5.57,-1.28 1.27,-1.9 1.94,-5.78 0.71,-11.24 -1,-4.42 -3.19,-9.84 -6.99,-15.99l0 0z"/>
   </g>
  </g>
 </g>
</svg>
