<?xml version="1.0" encoding="UTF-8"?>
<!DOCTYPE svg PUBLIC "-//W3C//DTD SVG 1.1//EN" "http://www.w3.org/Graphics/SVG/1.1/DTD/svg11.dtd">
<!-- Creator: CorelDRAW 2020 (64-Bit Versión de evaluación) -->
<svg xmlns="http://www.w3.org/2000/svg" xml:space="preserve" width="18.1443mm" height="15.8597mm" version="1.1" style="shape-rendering:geometricPrecision; text-rendering:geometricPrecision; image-rendering:optimizeQuality; fill-rule:evenodd; clip-rule:evenodd"
viewBox="0 0 122.09 106.71"
 xmlns:xlink="http://www.w3.org/1999/xlink"
 xmlns:xodm="http://www.corel.com/coreldraw/odm/2003">
 <defs>
  <style type="text/css">
   <![CDATA[
    .fil0 {fill:#FEFEFE;fill-rule:nonzero}
   ]]>
  </style>
 </defs>
 <g id="Capa_x0020_1">
  <metadata id="CorelCorpID_0Corel-Layer"/>
  <g id="_2059601004864">
   <g>
    <path class="fil0" d="M76.91 0c-0.18,1.78 -0.44,3.51 -0.77,5.2 3.15,2.58 6.04,5.8 8.53,9.84 -3.19,-2.32 -6.43,-3.83 -9.78,-4.7 -0.4,1.33 -0.86,2.63 -1.37,3.9 2.27,1.1 4.48,2.49 6.61,4.2 -2.91,-0.31 -5.69,-0.42 -8.39,-0.44 -0.58,1.09 -1.22,2.13 -1.92,3.15 9.5,1.37 19,4.53 28.37,9.55 -0.2,-9.44 -6.67,-20.87 -21.28,-30.7l0 0zm-76.91 5.84c2.26,2.78 4.21,5.63 5.8,8.57 6,1.48 12.19,4.16 18.4,8.69 -5.55,-1.65 -10.52,-1.91 -15.2,-1.13 0.75,2.45 1.25,4.97 1.47,7.55l7.26 2.08 -7.19 2.81c-0.16,3.07 -0.72,6.23 -1.71,9.5 2.56,0.58 5.26,0.64 8.17,0.07 -3.36,2.54 -6.72,4.13 -10.02,5.02 -1.01,2.37 -2.24,4.8 -3.71,7.28 14.28,-2.88 23.6,-7.04 28.99,-11.76 -1.61,-0.81 -3.26,-1.6 -4.96,-2.36 -2.21,-1 -3.9,-2.16 -5.04,-3.67 -1.14,-1.51 -1.6,-3.53 -1.11,-5.3 0.98,-3.54 4.42,-5.78 9.14,-7.54 1.58,-0.59 3.16,-1.13 4.74,-1.62 -5.84,-8.47 -19.24,-15.74 -35.04,-18.17l0 0zm59.06 19.02c-12.69,-0.02 -25.36,3.24 -37.29,9.6 2.57,1.1 5,2.18 7.31,3.26 0.06,0.03 0.11,0.05 0.18,0.08 9.97,4.66 17.64,9.3 24.21,15.78l6.14 -3.18 2.2 4.24 -5.97 3.09c2.31,2.18 5.05,3.7 8.1,4.76 -4.82,0.6 -9.64,0.34 -14.45,-1.46l-5.73 2.97c8.17,4.5 18.21,5.25 24.85,1.35l2.42 4.11c-1.56,0.92 -3.22,1.64 -4.95,2.16 1.89,3.99 4.68,8.02 8.37,12.29 8.98,10.38 20.57,12.3 25.31,0.99 -3.62,2.66 -10,2.5 -13.11,0.3 -6.4,-4.52 -2.96,-13.34 0.64,-19.96 3.03,-5.57 10.73,-8.85 14.8,-6.51 3.21,1.85 3.89,6.36 2.16,10.87 4.2,-2.32 8.63,-2.47 11.12,0.2 1.87,2 2.1,5.09 1.06,8.24 11.85,-12.15 1.5,-29.37 -12.17,-38.08 -14.19,-10.15 -29.69,-15.07 -45.18,-15.1l-0 0zm37.19 16.29c0.11,-0.01 0.23,-0 0.34,0 0.84,0.02 1.68,0.25 2.46,0.69 2.49,1.44 3.34,4.62 1.91,7.11 -1.44,2.49 -4.62,3.34 -7.11,1.9 -2.49,-1.44 -3.34,-4.62 -1.91,-7.11 0.93,-1.6 2.58,-2.53 4.3,-2.6l0 -0zm17.42 41.87c-2.12,6.43 -7.58,8.79 -13.37,10.73l10.52 1.64c0.59,8.18 2.65,12.31 10.1,11.12 2.96,-6.71 0.15,-11.71 -6.79,-14.12l-0.45 -9.37 0 0z"/>
   </g>
  </g>
 </g>
</svg>
