<?xml version="1.0" encoding="UTF-8"?>
<!DOCTYPE svg PUBLIC "-//W3C//DTD SVG 1.1//EN" "http://www.w3.org/Graphics/SVG/1.1/DTD/svg11.dtd">
<!-- Creator: CorelDRAW 2020 (64-Bit Versión de evaluación) -->
<svg xmlns="http://www.w3.org/2000/svg" xml:space="preserve" width="8.792mm" height="10.2606mm" version="1.1" style="shape-rendering:geometricPrecision; text-rendering:geometricPrecision; image-rendering:optimizeQuality; fill-rule:evenodd; clip-rule:evenodd"
viewBox="0 0 12.17 14.2"
 xmlns:xlink="http://www.w3.org/1999/xlink"
 xmlns:xodm="http://www.corel.com/coreldraw/odm/2003">
 <defs>
  <style type="text/css">
   <![CDATA[
    .str0 {stroke:#727376;stroke-width:0.28;stroke-miterlimit:22.9256}
    .fil0 {fill:#FEFEFE}
   ]]>
  </style>
 </defs>
 <g id="Capa_x0020_1">
  <metadata id="CorelCorpID_0Corel-Layer"/>
  <g id="_2059551129936">
   <path class="fil0 str0" d="M1.62 11.14c0,0 -2.29,-5.76 -1.17,-7.87 1.12,-2.11 3.22,-3.15 3.22,-3.15 0,0 -0.05,7.04 0.95,8.79 1.01,1.75 1.46,2.23 1.46,2.23 0,0 0.46,-0.48 1.46,-2.23 1.01,-1.75 0.95,-8.79 0.95,-8.79 0,0 2.11,1.04 3.22,3.15 1.12,2.11 -1.17,7.87 -1.17,7.87l0.06 0c0,0 -1.39,2.9 -4.57,2.92 -3.19,0.02 -4.42,-2.92 -4.42,-2.92z"/>
   <path class="fil0 str0" d="M8.5 1.27c0,-0.73 0.02,-0.86 0,-0.88 -0.02,-0.02 -1.68,0.09 -1.65,0.44 0.04,0.35 1.65,0.44 1.65,0.44z"/>
   <path class="fil0 str0" d="M8.33 2.41c0.02,-0.73 0.05,-0.86 0.03,-0.88 -0.02,-0.02 -1.69,0.04 -1.66,0.39 0.03,0.35 1.63,0.49 1.63,0.49z"/>
   <path class="fil0 str0" d="M8.31 3.58c0.04,-0.73 0.07,-0.85 0.05,-0.88 -0.02,-0.02 -1.69,-0.01 -1.67,0.34 0.02,0.35 1.62,0.53 1.62,0.53z"/>
   <path class="fil0 str0" d="M8.26 4.74c0.04,-0.73 0.07,-0.85 0.05,-0.88 -0.02,-0.02 -1.69,-0.01 -1.67,0.34 0.02,0.35 1.62,0.53 1.62,0.53z"/>
   <path class="fil0 str0" d="M8.2 5.91c0.07,-0.73 0.1,-0.85 0.08,-0.88 -0.02,-0.02 -1.69,-0.06 -1.68,0.29 0.01,0.35 1.6,0.59 1.6,0.59z"/>
   <path class="fil0 str0" d="M8 7.11c0.09,-0.73 0.13,-0.85 0.11,-0.87 -0.02,-0.03 -1.68,-0.12 -1.69,0.23 -0.01,0.35 1.58,0.64 1.58,0.64z"/>
   <path class="fil0 str0" d="M7.7 8.32c0.15,-0.63 0.19,-0.73 0.17,-0.76 -0.01,-0.02 -1.47,-0.26 -1.5,0.05 -0.04,0.31 1.33,0.71 1.33,0.71z"/>
   <path class="fil0 str0" d="M3.69 1.27c0,-0.73 -0.02,-0.86 0,-0.88 0.02,-0.02 1.68,0.09 1.65,0.44 -0.04,0.35 -1.65,0.44 -1.65,0.44z"/>
   <path class="fil0 str0" d="M3.86 2.41c-0.02,-0.73 -0.05,-0.86 -0.03,-0.88 0.02,-0.02 1.69,0.04 1.66,0.39 -0.03,0.35 -1.63,0.49 -1.63,0.49z"/>
   <path class="fil0 str0" d="M3.88 3.58c-0.04,-0.73 -0.07,-0.85 -0.05,-0.88 0.02,-0.02 1.69,-0.01 1.67,0.34 -0.02,0.35 -1.62,0.53 -1.62,0.53z"/>
   <path class="fil0 str0" d="M3.92 4.74c-0.04,-0.73 -0.07,-0.85 -0.05,-0.88 0.02,-0.02 1.69,-0.01 1.67,0.34 -0.02,0.35 -1.62,0.53 -1.62,0.53z"/>
   <path class="fil0 str0" d="M3.98 5.91c-0.07,-0.73 -0.1,-0.85 -0.08,-0.88 0.02,-0.02 1.69,-0.06 1.68,0.29 -0.01,0.35 -1.6,0.59 -1.6,0.59z"/>
   <path class="fil0 str0" d="M4.19 7.11c-0.09,-0.73 -0.13,-0.85 -0.11,-0.87 0.02,-0.03 1.68,-0.12 1.69,0.23 0.01,0.35 -1.58,0.64 -1.58,0.64z"/>
   <path class="fil0 str0" d="M4.49 8.32c-0.15,-0.63 -0.19,-0.73 -0.17,-0.76 0.01,-0.02 1.47,-0.26 1.5,0.05 0.04,0.31 -1.33,0.71 -1.33,0.71z"/>
  </g>
 </g>
</svg>
