<?xml version="1.0" encoding="UTF-8"?>
<!DOCTYPE svg PUBLIC "-//W3C//DTD SVG 1.1//EN" "http://www.w3.org/Graphics/SVG/1.1/DTD/svg11.dtd">
<!-- Creator: CorelDRAW 2020 (64-Bit Versión de evaluación) -->
<svg xmlns="http://www.w3.org/2000/svg" xml:space="preserve" width="10.2949mm" height="9.9971mm" version="1.1" style="shape-rendering:geometricPrecision; text-rendering:geometricPrecision; image-rendering:optimizeQuality; fill-rule:evenodd; clip-rule:evenodd"
viewBox="0 0 17.24 16.74"
 xmlns:xlink="http://www.w3.org/1999/xlink"
 xmlns:xodm="http://www.corel.com/coreldraw/odm/2003">
 <defs>
  <style type="text/css">
   <![CDATA[
    .str0 {stroke:#727376;stroke-width:0.33;stroke-miterlimit:22.9256}
    .fil0 {fill:#FEFEFE}
   ]]>
  </style>
 </defs>
 <g id="Capa_x0020_1">
  <metadata id="CorelCorpID_0Corel-Layer"/>
  <path class="fil0 str0" d="M0.25 1.18c0.54,3.23 1.68,7 3.36,9.51 1.43,2.14 2.78,3.37 3.19,4.07 0.14,-0.05 0.29,-0.1 0.45,-0.13 -0.49,-1.1 0.05,-1.34 0.41,-3.94 0.34,-2.47 0.43,-4.28 0.88,-7.68 0.45,3.4 0.78,5.14 1.08,7.57 0.34,2.83 0.78,3.17 0.27,4.21 0.14,0.05 0.29,0.1 0.44,0.17 0.23,-0.65 1.71,-1.9 3.29,-4.26 1.68,-2.51 2.81,-6.28 3.36,-9.51 0.84,7.24 -4.75,14.42 -5.5,14.37 -3.43,2.19 -5.84,0.16 -5.86,-0.04l0 -0c-1.13,-0.58 -6.18,-7.43 -5.37,-14.33z"/>
 </g>
</svg>
