<?xml version="1.0" encoding="UTF-8"?>
<!DOCTYPE svg PUBLIC "-//W3C//DTD SVG 1.1//EN" "http://www.w3.org/Graphics/SVG/1.1/DTD/svg11.dtd">
<!-- Creator: CorelDRAW 2020 (64-Bit Versión de evaluación) -->
<svg xmlns="http://www.w3.org/2000/svg" xml:space="preserve" width="50.8041mm" height="20.4029mm" version="1.1" style="shape-rendering:geometricPrecision; text-rendering:geometricPrecision; image-rendering:optimizeQuality; fill-rule:evenodd; clip-rule:evenodd"
viewBox="0 0 509.59 204.65"
 xmlns:xlink="http://www.w3.org/1999/xlink"
 xmlns:xodm="http://www.corel.com/coreldraw/odm/2003">
 <defs>
  <style type="text/css">
   <![CDATA[
    .str0 {stroke:#727376;stroke-width:3.54;stroke-miterlimit:22.9256}
    .fil0 {fill:#FEFEFE}
   ]]>
  </style>
 </defs>
 <g id="Capa_x0020_1">
  <metadata id="CorelCorpID_0Corel-Layer"/>
  <path class="fil0 str0" d="M100.79 9.82c19.07,0 84.95,-0.87 102.57,-0.51 16.5,0.34 111.44,1.78 118.59,5.92 14.79,-8.56 13.35,-13.45 50.28,-13.45 19.45,0 56.03,12.37 86.29,32.19 27.19,17.81 49.29,41.64 49.29,67.92 0,55.54 -98.66,101 -135.59,101 -36.93,0 -35.49,-4.9 -50.28,-13.45 -7.28,4.21 -101.06,5.63 -118.59,5.98 -18.11,0.36 -86.46,-0.4 -105.22,-0.4 -36.93,0 -80.04,-44.98 -96.31,-93.12 9.55,-50.07 62.04,-92.06 98.96,-92.06z"/>
 </g>
</svg>
