<?xml version="1.0" encoding="UTF-8"?>
<!DOCTYPE svg PUBLIC "-//W3C//DTD SVG 1.1//EN" "http://www.w3.org/Graphics/SVG/1.1/DTD/svg11.dtd">
<!-- Creator: CorelDRAW 2020 (64-Bit Versión de evaluación) -->
<svg xmlns="http://www.w3.org/2000/svg" xml:space="preserve" width="17.0614mm" height="20.0903mm" version="1.1" style="shape-rendering:geometricPrecision; text-rendering:geometricPrecision; image-rendering:optimizeQuality; fill-rule:evenodd; clip-rule:evenodd"
viewBox="0 0 53.61 63.13"
 xmlns:xlink="http://www.w3.org/1999/xlink"
 xmlns:xodm="http://www.corel.com/coreldraw/odm/2003">
 <defs>
  <style type="text/css">
   <![CDATA[
    .str0 {stroke:#727376;stroke-width:1.11;stroke-miterlimit:22.9256}
    .fil1 {fill:none}
    .fil0 {fill:#FEFEFE}
   ]]>
  </style>
 </defs>
 <g id="Capa_x0020_1">
  <metadata id="CorelCorpID_0Corel-Layer"/>
  <g id="_2059553450384">
   <path class="fil0 str0" d="M1.31 46.31c0,0 7.97,2.98 7.74,11.69 -0.22,8.71 40.21,2.46 40.81,1.56 0.6,-0.89 4.62,-22.93 2.68,-32.17 -1.94,-9.23 -5.96,-27.85 -8.49,-26.81 -2.53,1.04 -27.25,27.55 -29.19,28.74 -1.94,1.19 -7,13.25 -13.55,16.98z"/>
   <line class="fil1 str0" x1="42.93" y1="21.52" x2="22.38" y2= "36.26" />
   <path class="fil1 str0" d="M42.63 10.94c-22.64,20.1 -22.79,19.96 -22.79,19.96"/>
   <line class="fil1 str0" x1="46.6" y1="35.7" x2="24.3" y2= "47.64" />
   <path class="fil1 str0" d="M47.68 25.18c-25.06,16.98 -25.19,16.82 -25.19,16.82"/>
   <line class="fil1 str0" x1="46.62" y1="47.77" x2="22.75" y2= "56.15" />
   <path class="fil1 str0" d="M50.15 39.28c-27.37,12.94 -27.47,12.75 -27.47,12.75"/>
  </g>
 </g>
</svg>
