<?xml version="1.0" encoding="UTF-8"?>
<!DOCTYPE svg PUBLIC "-//W3C//DTD SVG 1.1//EN" "http://www.w3.org/Graphics/SVG/1.1/DTD/svg11.dtd">
<!-- Creator: CorelDRAW 2020 (64-Bit Versión de evaluación) -->
<svg xmlns="http://www.w3.org/2000/svg" xml:space="preserve" width="50.7487mm" height="38.4379mm" version="1.1" style="shape-rendering:geometricPrecision; text-rendering:geometricPrecision; image-rendering:optimizeQuality; fill-rule:evenodd; clip-rule:evenodd"
viewBox="0 0 328.41 248.74"
 xmlns:xlink="http://www.w3.org/1999/xlink"
 xmlns:xodm="http://www.corel.com/coreldraw/odm/2003">
 <defs>
  <style type="text/css">
   <![CDATA[
    .str0 {stroke:#727376;stroke-width:2.28;stroke-miterlimit:22.9256}
    .fil0 {fill:#FEFEFE}
   ]]>
  </style>
 </defs>
 <g id="Capa_x0020_1">
  <metadata id="CorelCorpID_0Corel-Layer"/>
  <path class="fil0 str0" d="M25.9 141.19c5.57,-4.05 23.84,-1.8 33.31,-8.44 12.89,-9.04 17.06,-26.98 20.98,-29.4 5.13,-3.18 44.09,-13.84 69.62,-24.82 9.22,-3.97 15.11,-9.44 18.67,-13.57 3.76,-4.37 9.54,-21.51 11.82,-26.02 4.72,-9.96 2.16,-12.04 21.77,-25.56 10.33,-7.12 36.4,-5.76 59.3,-10.27 19.86,-3.91 43.81,-2.75 54.17,10.67 2.8,3.63 6.66,9.39 9.29,13.47 5.27,8.16 2.71,26.61 -14.41,46.87 -15.91,18.82 -26.49,40.41 -34.68,46.06 -19.61,13.53 -20.64,10.4 -31.63,11.27 -2.03,0.6 -22.27,2.12 -28.21,3.59 -5.12,1.26 -8.6,3.25 -14.98,9.6 -19.5,19.42 -47.3,53.76 -52.55,57.54 -3.96,2.85 -23.61,3.54 -33.12,10.01 -13.25,9.02 -17.12,24.31 -22.91,28.32 -15.73,10.88 -44.12,8.71 -67.61,-2.82 -6.36,-3.12 -12.36,-6.93 -17.65,-11.35 -3.27,-6.62 -5.08,-13.97 -5.7,-21.54 -2.05,-25.24 9.43,-52.61 24.53,-63.6z"/>
 </g>
</svg>
