<?xml version="1.0" encoding="UTF-8"?>
<!DOCTYPE svg PUBLIC "-//W3C//DTD SVG 1.1//EN" "http://www.w3.org/Graphics/SVG/1.1/DTD/svg11.dtd">
<!-- Creator: CorelDRAW 2020 (64-Bit Versión de evaluación) -->
<svg xmlns="http://www.w3.org/2000/svg" xml:space="preserve" width="6.2978mm" height="25.5799mm" version="1.1" style="shape-rendering:geometricPrecision; text-rendering:geometricPrecision; image-rendering:optimizeQuality; fill-rule:evenodd; clip-rule:evenodd"
viewBox="0 0 5.69 23.11"
 xmlns:xlink="http://www.w3.org/1999/xlink"
 xmlns:xodm="http://www.corel.com/coreldraw/odm/2003">
 <defs>
  <style type="text/css">
   <![CDATA[
    .str0 {stroke:#606062;stroke-width:0.32;stroke-miterlimit:22.9256}
    .fil0 {fill:#FEFEFE}
   ]]>
  </style>
 </defs>
 <g id="Capa_x0020_1">
  <metadata id="CorelCorpID_0Corel-Layer"/>
  <path class="fil0 str0" d="M5.16 0.46c0,0 -2.49,-1 -3.71,0.66 -1.22,1.65 -1.29,6.05 -1.29,6.05 0,0 -0.12,2.01 0.86,2.12 -1.28,1.53 0.19,4.63 2.35,7.13 -0.35,1.43 -0.34,2.74 -0.49,4.11 -0.06,0.57 -0.12,0.83 -0.21,1.05 -0.49,1.2 0.08,0.94 0.48,0.03 0.09,-0.21 0.15,-0.59 0.26,-1.11 0.03,-0.12 0.4,-0.1 0.4,0.04 0,0.47 -0.21,1.27 -0.2,1.57 0.04,1.33 0.49,0.87 0.57,0.12 0.05,-0.48 0.11,-1.59 0.13,-1.77 0.02,-0.21 0.29,-0.19 0.33,0.02 0.09,0.4 0.33,1.05 0.37,1.31 0.2,1.39 0.59,1.64 0.48,-0.08 -0.02,-0.27 -0.4,-1.05 -0.46,-1.52 -0,-0.02 0.25,-2.58 0.3,-2.6 0.3,-0.69 -0.73,-3.37 -0.73,-3.37 0,0 0.34,-4.12 -1.15,-5.02 1.74,-0.86 1.7,-8.74 1.7,-8.74z"/>
 </g>
</svg>
