<?xml version="1.0" encoding="UTF-8"?>
<!DOCTYPE svg PUBLIC "-//W3C//DTD SVG 1.1//EN" "http://www.w3.org/Graphics/SVG/1.1/DTD/svg11.dtd">
<!-- Creator: CorelDRAW 2020 (64-Bit Versión de evaluación) -->
<svg xmlns="http://www.w3.org/2000/svg" xml:space="preserve" width="17.5903mm" height="21.5768mm" version="1.1" style="shape-rendering:geometricPrecision; text-rendering:geometricPrecision; image-rendering:optimizeQuality; fill-rule:evenodd; clip-rule:evenodd"
viewBox="0 0 42.44 52.06"
 xmlns:xlink="http://www.w3.org/1999/xlink"
 xmlns:xodm="http://www.corel.com/coreldraw/odm/2003">
 <defs>
  <style type="text/css">
   <![CDATA[
    .str0 {stroke:#606062;stroke-width:0.85;stroke-miterlimit:22.9256}
    .fil0 {fill:#FEFEFE}
   ]]>
  </style>
 </defs>
 <g id="Capa_x0020_1">
  <metadata id="CorelCorpID_0Corel-Layer"/>
  <path class="fil0 str0" d="M37.51 49.53c0,0 0.64,-7.29 -5.58,-9.01 -6.22,-1.72 -9.44,1.07 -13.94,-2.36 -4.51,-3.43 -4.93,-6.22 -4.93,-6.22 0,0 11.16,7.29 11.8,5.36 0.64,-1.93 -2.57,-13.94 -7.72,-14.8 -5.15,-0.86 -14.59,-1.93 -16.09,-5.79 -1.5,-3.86 0.21,-5.36 0.21,-5.36 0,0 10.94,9.12 18.56,8.26 7.62,-0.86 -2.25,-15.12 -2.25,-15.12 0,0 -2.57,-2.68 -5.15,-2.68 -2.57,0 -0.54,-1.18 -0.54,-1.18 0,0 6.97,-2.36 15.98,9.55 9.01,11.91 -0.54,12.01 -0.54,12.01 0,0 -1.72,6.44 4.83,10.19 6.54,3.75 9.87,12.34 9.87,16.2 0,3.86 -3.86,3.97 -4.51,0.97z"/>
 </g>
</svg>
