<?xml version="1.0" encoding="UTF-8"?>
<!DOCTYPE svg PUBLIC "-//W3C//DTD SVG 1.1//EN" "http://www.w3.org/Graphics/SVG/1.1/DTD/svg11.dtd">
<!-- Creator: CorelDRAW 2020 (64-Bit Versión de evaluación) -->
<svg xmlns="http://www.w3.org/2000/svg" xml:space="preserve" width="18.0053mm" height="16.747mm" version="1.1" style="shape-rendering:geometricPrecision; text-rendering:geometricPrecision; image-rendering:optimizeQuality; fill-rule:evenodd; clip-rule:evenodd"
viewBox="0 0 97.81 90.98"
 xmlns:xlink="http://www.w3.org/1999/xlink"
 xmlns:xodm="http://www.corel.com/coreldraw/odm/2003">
 <defs>
  <style type="text/css">
   <![CDATA[
    .fil1 {fill:#FEFEFE;fill-rule:nonzero;fill-opacity:0.749020}
    .fil0 {fill:#FEFEFE;fill-rule:nonzero}
   ]]>
  </style>
 </defs>
 <g id="Capa_x0020_1">
  <metadata id="CorelCorpID_0Corel-Layer"/>
  <g id="_2059498176880">
   <path class="fil0" d="M58.54 0c-0.21,0 -0.42,0 -0.62,0.01 -9.99,0.22 -20.9,5.13 -27.84,11.87 -9.08,8.82 -19.9,23.41 -25.73,37.45 -2.92,7.02 -4.58,13.9 -4.31,19.76 0.27,5.86 2.32,10.65 7.04,14.19 3.4,2.55 6.2,2.38 9.7,0.59 3.5,-1.79 7.37,-5.48 11.35,-9.83 7.95,-8.69 16.18,-20.01 26.19,-23.36 13.38,-4.48 21.27,-7.45 26.17,-10.13 4.9,-2.67 6.79,-4.86 8.82,-8.46 1.58,-2.81 1.81,-5.64 1.09,-8.63 -0.72,-2.99 -2.46,-6.1 -4.86,-9.01 -4.79,-5.82 -12.18,-10.81 -18.12,-12.99 -2.76,-1.01 -5.77,-1.47 -8.88,-1.46l0 -0zm0.74 5.25c4.59,-0.02 9.12,0.94 12.66,3.61 10.29,7.77 18.71,12.76 11.77,24.22 -6.94,11.45 -38.31,12.59 -47.09,4.34 -0.36,-2.29 -2.73,-19.79 2.2,-26.33 2.71,-2.17 11.69,-5.79 20.46,-5.84l0 0zm-25.94 9.45c-0.23,0.43 -1.53,17.99 -2.25,21.41 -4.2,2.11 -15.54,4.56 -16,1.51 0.78,-3.6 8.03,-15.58 18.25,-22.92l-0 0zm-7.89 26.34c7.35,-0.04 14.95,3.63 22.66,7.81 -15.42,8.08 -30.71,39.03 -40.5,29 -3.94,-4.35 -4.21,-25.92 6.52,-33.24 3.69,-2.51 7.47,-3.55 11.32,-3.58l0 -0zm-7.89 15.85c-1.18,0.02 -2.36,0.38 -3.19,1.04 -2.67,2.11 -4.7,7.39 -2.43,9.92 2.18,2.42 7.67,1.26 9.68,-1.3 1.79,-2.28 1.23,-6.73 -0.93,-8.66 -0.79,-0.7 -1.95,-1.02 -3.13,-1l-0 0z"/>
   <path class="fil1" d="M91.79 21.28c1.65,4.55 1.6,9.32 -0.83,13.62 -2.24,3.98 -8.23,8.66 -13.6,11.59 -6.06,2.75 -8.52,3.66 -21.17,6.59 -7.98,2.67 -17.05,14.68 -25.19,23.58 -4.07,4.45 -8.1,8.44 -12.45,10.67 -1.28,0.65 -2.61,1.13 -3.97,1.39 0.66,0.37 1.33,0.72 1.98,1.02 1.76,0.81 3.58,1.23 3.72,1.23 3.04,-0.14 6.29,-1.8 9.7,-4.55 3.42,-2.76 6.94,-6.55 10.5,-10.54 7.11,-7.96 14.23,-16.78 22.61,-19.58 13.38,-4.48 16.37,-4.89 21.3,-7.55 4.93,-2.65 9.09,-6.18 10.96,-9.81 2.11,-4.09 3.18,-7.24 1.94,-10.27 -1.53,-3.75 -3.71,-4.71 -5.5,-7.39z"/>
  </g>
 </g>
</svg>
