<?xml version="1.0" encoding="UTF-8"?>
<!DOCTYPE svg PUBLIC "-//W3C//DTD SVG 1.1//EN" "http://www.w3.org/Graphics/SVG/1.1/DTD/svg11.dtd">
<!-- Creator: CorelDRAW 2020 (64-Bit Versión de evaluación) -->
<svg xmlns="http://www.w3.org/2000/svg" xml:space="preserve" width="16.8578mm" height="17.0705mm" version="1.1" style="shape-rendering:geometricPrecision; text-rendering:geometricPrecision; image-rendering:optimizeQuality; fill-rule:evenodd; clip-rule:evenodd"
viewBox="0 0 76.63 77.6"
 xmlns:xlink="http://www.w3.org/1999/xlink"
 xmlns:xodm="http://www.corel.com/coreldraw/odm/2003">
 <defs>
  <style type="text/css">
   <![CDATA[
    .fil0 {fill:#FEFEFE;fill-rule:nonzero}
   ]]>
  </style>
 </defs>
 <g id="Capa_x0020_1">
  <metadata id="CorelCorpID_0Corel-Layer"/>
  <g id="_2059582157232">
   <g>
    <path class="fil0" d="M42.45 4.45c1.29,-1.75 2.85,-2.95 4.53,-3.54 3.02,-1.06 6.53,-0.27 9.75,2.88 1.92,-2.09 4.1,-3.22 6.3,-3.62 6.19,-1.16 12.51,3.6 13.48,9.49 0.52,3.24 -0.48,6.87 -4.1,10.01 3.53,4.1 4.29,7.41 3.67,10.02 -0.43,1.81 -1.57,3.36 -3.15,4.65 1.61,3.7 0.68,6.66 -2.06,8.95 -2.18,1.83 -5.73,3.2 -10.2,4.13 -0.14,2.52 -0.82,4.42 -1.83,5.87 -1.74,2.56 -4.49,3.76 -7.39,4.37 -2.61,0.63 -5.06,0.48 -7.61,1.07 -7.89,1.95 -11.04,6.16 -13.83,9.91 -2.38,3.22 -4.56,6.08 -8.54,7.7 -1.63,0.72 -3.6,1.07 -6.01,1.25 3.26,-1.25 5.94,-3.58 8.47,-6.98 1.16,-1.43 2.31,-3.22 3.53,-5.37 2.67,-4.38 7,-7.59 12.03,-8.86 4.03,-1.09 7.53,-0.84 11.36,-1.65 2.15,-0.45 4.26,-1.24 5.55,-3.13 0.57,-0.84 0.98,-1.88 1.18,-3.19 -1.13,0.54 -2.51,0.95 -4.1,1.34 -7.45,1.79 -19.7,2.49 -27.15,13.12 -3.15,4.64 -7.18,10.65 -11.87,12.56 -1.07,0.36 -2.22,0.72 -3.49,0.72 4.03,-1.79 5.44,-4.47 5.44,-4.47 0,0 -3.92,5.01 -14.08,3.4 -1.21,-4.53 -0.69,-11.01 3.15,-14.32 0,0 -2.96,1.61 -4.92,6.26 -0.21,-2.86 0.3,-5.31 1.37,-7.37 4.09,-5.8 8.82,-7.98 14.49,-10.93 5.14,-3.33 7.57,-8.07 9,-12.74 1.25,-4.06 1.79,-8.11 2.61,-11.27 0.38,-1.47 0.84,-2.76 1.43,-3.83 -1.99,0.09 -3.49,0.57 -4.62,1.38 -1.9,1.38 -2.7,3.6 -3.13,5.85 -0.57,2.68 -0.45,5.55 -0.77,8.16 -0.63,5.03 -3.67,9.43 -8.13,11.81 -4.75,2.76 -10.45,6.17 -12.83,10.45 0.24,-1.25 0.59,-2.38 1.01,-3.36 1.76,-4.15 4.91,-6.46 8.17,-8.68 2.79,-1.9 5.69,-3.7 7.42,-7.07 1.72,-4.19 1.41,-7.77 2.18,-11.88 0.59,-3.01 1.79,-5.87 4.33,-7.7 1.47,-1.06 3.38,-1.77 5.92,-1.93 0.97,-4.49 2.65,-8.25 4.8,-10.65 2.4,-2.68 5.33,-3.81 8.61,-2.81l0 0zm-9.91 48.73c6.94,-4.12 14.76,-5.01 20.24,-6.32 1.84,-0.57 4.78,-1.04 5.44,-2.93 0.38,-1.13 0,-2.65 -1.07,-4.81l-0.82 -1.63 1.77 -0.47c2.47,-0.64 7.14,-1.65 10.77,-3.58 2.08,-1.11 3.85,-2.49 4.31,-4.46 0.54,-2.2 -0.59,-4.89 -4.03,-8.47l-1.2 -1.23 1.41 -1c3.47,-2.51 4.64,-5.46 4.19,-8.14 -0.72,-4.37 -5.4,-7.89 -9.99,-7.05 -1.99,0.38 -3.94,1.57 -5.55,3.85l-1.13 1.58 -1.23 -1.49c-2.52,-3.02 -5.26,-4.15 -7.7,-3.31 -1.45,0.52 -2.72,1.7 -3.72,3.44 -1.68,2.94 -2.56,7.36 -2.11,13.01l0.2 2.51 -2.29 -1.02c-3.17,-1.41 -5.17,-1.74 -6.55,-0.93 -1.38,0.79 -1.99,2.56 -2.56,4.74 -0.84,3.2 -1.38,7.28 -2.65,11.4 -0.75,2.47 -1.77,4.94 -3.22,7.27 4.01,-2.27 9.45,-5.1 11.08,-9.72 1.11,-3.27 0,-5.94 0,-5.94l2.74 -1.18c0,0 1.49,3.38 0.23,7.61 3.97,-3.17 6.91,-5.64 10.27,-8.93 0.91,-1.06 1.58,-2.2 1.99,-3.51 0.75,-2.47 0.5,-5.4 -0.91,-9.14l2.79 -1.06c1.41,3.76 1.77,6.87 1.32,9.54 3.81,-3.54 8.04,-7.96 9.68,-11.37l2.68 1.29c-2.2,4.58 -8.77,10.86 -13.23,14.82 4.08,-0.86 7.34,-0.36 7.34,-0.36l-0.47 2.95c-12.04,1.24 -15.07,4.64 -22.35,14.68 6.17,-3.62 11.26,-2.49 11.26,-2.49l-0.59 2.92c0,0 -8.64,-1.61 -16.36,8.95l0 0zm37.73 -17.11c-3.13,1.68 -6.98,2.7 -9.72,3.4 0.75,1.95 0.91,3.53 0.66,4.78 2.58,-0.61 4.76,-1.38 6.44,-2.34 1.36,-0.81 2.34,-1.72 2.79,-2.83 0.14,-0.45 0.54,-1.75 -0.18,-3.01zm-29.35 -28.9c-1.83,-0.29 -3.47,0.54 -4.85,2.08 -1.79,2.01 -3.15,5.12 -3.99,8.84 1.59,-0.89 3.81,-1.07 6.96,-0.04 -0.07,-4.44 0.64,-8.11 1.88,-10.88l0 0z"/>
   </g>
  </g>
 </g>
</svg>
