<?xml version="1.0" encoding="UTF-8"?>
<!DOCTYPE svg PUBLIC "-//W3C//DTD SVG 1.1//EN" "http://www.w3.org/Graphics/SVG/1.1/DTD/svg11.dtd">
<!-- Creator: CorelDRAW 2020 (64-Bit Versión de evaluación) -->
<svg xmlns="http://www.w3.org/2000/svg" xml:space="preserve" width="18.9568mm" height="13.4958mm" version="1.1" style="shape-rendering:geometricPrecision; text-rendering:geometricPrecision; image-rendering:optimizeQuality; fill-rule:evenodd; clip-rule:evenodd"
viewBox="0 0 122.81 87.43"
 xmlns:xlink="http://www.w3.org/1999/xlink"
 xmlns:xodm="http://www.corel.com/coreldraw/odm/2003">
 <defs>
  <style type="text/css">
   <![CDATA[
    .fil0 {fill:#FEFEFE}
   ]]>
  </style>
 </defs>
 <g id="Capa_x0020_1">
  <metadata id="CorelCorpID_0Corel-Layer"/>
  <g id="_2095809916480">
   <path class="fil0" d="M39.89 47.49c0.87,-0.9 3.26,-5.89 4.16,-7.44 3.18,-5.43 10.5,-16.17 16.23,-19.28l-5.4 5.97c-3.84,4.57 -11.07,17.54 -12.26,22.95 10.44,-1.85 23.12,-10.66 27.77,-16.47 1.73,-2.16 3.11,-3.84 4.7,-6.36 2.8,-4.42 8.85,-19.27 9.57,-23.57 -7.42,-3.01 -12.03,-3.78 -20.6,-1.44 -14.55,3.98 -26.19,19.71 -25.95,35.18 0.04,2.45 0.57,8.72 1.78,10.44z"/>
   <path class="fil0" d="M2.93 0c-1.44,1.78 -2.36,5.42 -2.73,8.17 -0.46,3.37 -0.1,6.58 0.59,9.84 3.42,15.97 19.66,28.7 35.82,28.24l-0.32 -7.94c-1.29,-0.93 -2.91,-1.91 -4.48,-3.05 -3.09,-2.26 -9.78,-7.48 -11.19,-10.73 1.36,0.88 9.64,9.27 15.68,11.27 0.51,-2.87 0.58,-5.58 1.27,-8.31 0.63,-2.53 1.99,-6.09 1.29,-7.11 -1.19,-1.73 -3.11,-3.37 -4.51,-4.83 -1.6,-1.67 -3.27,-2.87 -5.07,-4.24 -3.37,-2.56 -7.81,-4.77 -12.4,-6.54 -2.8,-1.08 -11.21,-4.46 -13.95,-4.76z"/>
  </g>
  <path class="fil0" d="M32.02 66.24c0.92,1.47 2.09,3.57 4.7,6.76 10.03,10.3 29.89,3.21 37.55,2.75 9.66,-0.59 21.65,5.04 30.17,0.75 4.74,-2.39 8.41,-7.9 10.19,-12.63 2.75,-7.29 -2.13,-11.81 -5.07,-16.43 -1.52,-2.37 -3.04,-5.04 -3.5,-8.1 -0.83,-5.58 5.31,-15.72 -2.8,-22.96 -0.94,-0.84 -1.88,-1.52 -3.29,-2.54 4.71,0.87 12.39,6.48 12.91,12.99 0.84,10.49 -4.38,12.28 1.4,21.87 3.41,5.65 8.55,9.94 5.84,18.32 -1.81,5.6 -6.55,11.75 -11.21,14.29 -10.49,5.73 -20.79,-1.25 -33.64,-0.12l-10.56 2.17c-7.62,1.33 -16.22,0.85 -22.11,-2.37 -5.21,-2.85 -10.27,-9.94 -10.58,-14.76zm1.39 9.72c4.28,7.2 10.58,10.01 19.83,11.23 10.43,1.38 18.3,-3.56 27.98,-2.82 9.16,0.7 18.07,4.6 27.11,0.67 6.75,-2.94 11.51,-9.87 13.86,-17.25 2.86,-8.98 -5.08,-15.07 -8.06,-21.58 -3.28,-7.15 4.66,-16.01 -2.57,-25.88 -2.09,-2.85 -5.44,-5.27 -8.99,-6.5 -2.89,-1 -14.27,-2.78 -17.86,-2.51 -1.03,1.62 -1.89,3.95 -1.95,6.09 3.62,0.03 11.34,0.55 14.24,1.95 2.58,1.24 4.55,3.24 4.63,6.47 0.14,5.49 -3.44,11.87 0.15,19.83 5.7,12.65 11.99,10.84 3.97,21.9 -6.11,8.43 -15.81,3.28 -26.58,2.34 -8.36,-0.73 -12.53,1.82 -19.79,2.43 -16.61,1.39 -22.4,-5.16 -23.02,-23.48l-5.63 -0.78c-2.07,5.2 -2.48,10.41 -1.34,16.37 0.78,4.05 1.94,8.04 4.01,11.52z"/>
  <path class="fil0" d="M72.76 50.51c-0.41,-1.91 1.2,-2.2 2.79,-2.89 0.67,-0.29 3.89,-1.24 4.29,-1.67 0.54,-0.58 2.04,-7.03 5.2,-6.07 0.22,2.29 -2.84,2.38 -2.95,6.66 1.1,0.52 4.4,2.13 4.64,3.16 0.2,0.85 -0.49,0.99 -1.14,0.92 -1.48,-0.14 -3.56,-2.93 -5.89,-2.49 -2.09,0.4 -5.23,2.68 -6.95,2.37zm16.48 -11.44c0.46,-2.27 0.39,-3.96 -1.59,-4.78 -5.22,-2.18 -11.35,2.09 -14.65,5.82 -6.17,6.98 -11.51,5.15 -11.43,9.54 0.14,7.84 6.11,8.1 12.61,6.6 5.66,-1.31 8.26,0.39 13.01,0.46 4.14,0.06 6.97,-4.11 4.67,-7.4 -2.28,-3.27 -3.65,-5.13 -2.63,-10.23z"/>
 </g>
</svg>
