<?xml version="1.0" encoding="UTF-8"?>
<!DOCTYPE svg PUBLIC "-//W3C//DTD SVG 1.1//EN" "http://www.w3.org/Graphics/SVG/1.1/DTD/svg11.dtd">
<!-- Creator: CorelDRAW 2020 (64-Bit Versión de evaluación) -->
<svg xmlns="http://www.w3.org/2000/svg" xml:space="preserve" width="13.0691mm" height="7.6708mm" version="1.1" style="shape-rendering:geometricPrecision; text-rendering:geometricPrecision; image-rendering:optimizeQuality; fill-rule:evenodd; clip-rule:evenodd"
viewBox="0 0 58.37 34.26"
 xmlns:xlink="http://www.w3.org/1999/xlink"
 xmlns:xodm="http://www.corel.com/coreldraw/odm/2003">
 <defs>
  <style type="text/css">
   <![CDATA[
    .fil0 {fill:#FEFEFE}
   ]]>
  </style>
 </defs>
 <g id="Capa_x0020_1">
  <metadata id="CorelCorpID_0Corel-Layer"/>
  <g id="_2059493886480">
   <path class="fil0" d="M27.5 32.74c0.6,-0.62 2.24,-4.06 2.87,-5.13 2.19,-3.75 7.24,-11.15 11.19,-13.3l-3.72 4.12c-2.65,3.15 -7.63,12.09 -8.45,15.82 7.19,-1.27 15.94,-7.35 19.15,-11.35 1.19,-1.49 2.14,-2.65 3.24,-4.38 1.93,-3.05 6.1,-13.28 6.6,-16.25 -5.11,-2.08 -8.3,-2.61 -14.2,-0.99 -10.03,2.75 -18.06,13.59 -17.89,24.26 0.03,1.69 0.4,6.01 1.23,7.2z"/>
   <path class="fil0" d="M2.02 0c-1,1.23 -1.63,3.74 -1.88,5.63 -0.31,2.32 -0.07,4.54 0.41,6.78 2.36,11.01 13.56,19.79 24.7,19.47l-0.22 -5.47c-0.89,-0.64 -2.01,-1.31 -3.09,-2.11 -2.13,-1.56 -6.74,-5.16 -7.72,-7.39 0.94,0.6 6.65,6.39 10.81,7.77 0.35,-1.98 0.4,-3.85 0.88,-5.73 0.44,-1.74 1.37,-4.2 0.89,-4.9 -0.82,-1.19 -2.14,-2.33 -3.11,-3.33 -1.1,-1.15 -2.25,-1.98 -3.5,-2.92 -2.32,-1.76 -5.38,-3.29 -8.55,-4.51 -1.93,-0.75 -7.73,-3.07 -9.62,-3.28z"/>
  </g>
 </g>
</svg>
