<?xml version="1.0" encoding="UTF-8"?>
<!DOCTYPE svg PUBLIC "-//W3C//DTD SVG 1.1//EN" "http://www.w3.org/Graphics/SVG/1.1/DTD/svg11.dtd">
<!-- Creator: CorelDRAW 2020 (64-Bit Versión de evaluación) -->
<svg xmlns="http://www.w3.org/2000/svg" xml:space="preserve" width="14.5136mm" height="11.7527mm" version="1.1" style="shape-rendering:geometricPrecision; text-rendering:geometricPrecision; image-rendering:optimizeQuality; fill-rule:evenodd; clip-rule:evenodd"
viewBox="0 0 74.24 60.12"
 xmlns:xlink="http://www.w3.org/1999/xlink"
 xmlns:xodm="http://www.corel.com/coreldraw/odm/2003">
 <defs>
  <style type="text/css">
   <![CDATA[
    .fil0 {fill:#FEFEFE}
   ]]>
  </style>
 </defs>
 <g id="Capa_x0020_1">
  <metadata id="CorelCorpID_0Corel-Layer"/>
  <path class="fil0" d="M2.56 43.38c0.73,1.16 1.65,2.82 3.71,5.34 7.92,8.13 23.6,2.54 29.65,2.17 7.63,-0.46 17.1,3.98 23.82,0.6 3.74,-1.88 6.64,-6.24 8.05,-9.97 2.17,-5.76 -1.68,-9.33 -4,-12.97 -1.2,-1.88 -2.4,-3.98 -2.76,-6.4 -0.65,-4.41 4.19,-12.41 -2.21,-18.13 -0.74,-0.66 -1.49,-1.2 -2.6,-2 3.72,0.69 9.78,5.12 10.19,10.26 0.67,8.28 -3.46,9.7 1.1,17.27 2.69,4.46 6.75,7.84 4.61,14.46 -1.43,4.42 -5.18,9.28 -8.85,11.29 -8.29,4.52 -16.42,-0.99 -26.56,-0.09l-8.34 1.71c-6.02,1.05 -12.8,0.67 -17.46,-1.87 -4.12,-2.25 -8.11,-7.85 -8.36,-11.66zm1.1 7.68c3.38,5.68 8.36,7.9 15.66,8.87 8.23,1.09 14.45,-2.81 22.09,-2.23 7.23,0.55 14.27,3.63 21.41,0.53 5.33,-2.32 9.09,-7.79 10.94,-13.62 2.26,-7.09 -4.01,-11.9 -6.37,-17.04 -2.59,-5.64 3.68,-12.64 -2.03,-20.43 -1.65,-2.25 -4.3,-4.16 -7.1,-5.13 -2.28,-0.79 -11.27,-2.2 -14.1,-1.99 -0.82,1.28 -1.5,3.12 -1.54,4.81 2.86,0.03 8.95,0.43 11.25,1.54 2.04,0.98 3.59,2.56 3.65,5.11 0.11,4.34 -2.72,9.37 0.12,15.66 4.5,9.99 9.47,8.56 3.14,17.3 -4.82,6.66 -12.49,2.59 -20.99,1.84 -6.6,-0.58 -9.9,1.44 -15.62,1.92 -13.12,1.09 -17.69,-4.08 -18.18,-18.54l-4.44 -0.61c-1.63,4.1 -1.96,8.22 -1.06,12.92 0.61,3.2 1.53,6.35 3.16,9.09z"/>
 </g>
</svg>
