<?xml version="1.0" encoding="UTF-8"?>
<!DOCTYPE svg PUBLIC "-//W3C//DTD SVG 1.1//EN" "http://www.w3.org/Graphics/SVG/1.1/DTD/svg11.dtd">
<!-- Creator: CorelDRAW 2020 (64-Bit Versión de evaluación) -->
<svg xmlns="http://www.w3.org/2000/svg" xml:space="preserve" width="30.0565mm" height="15.4819mm" version="1.1" style="shape-rendering:geometricPrecision; text-rendering:geometricPrecision; image-rendering:optimizeQuality; fill-rule:evenodd; clip-rule:evenodd"
viewBox="0 0 154.49 79.58"
 xmlns:xlink="http://www.w3.org/1999/xlink"
 xmlns:xodm="http://www.corel.com/coreldraw/odm/2003">
 <defs>
  <style type="text/css">
   <![CDATA[
    .str0 {stroke:#606062;stroke-width:1.81;stroke-miterlimit:22.9256}
    .fil0 {fill:#FEFEFE}
   ]]>
  </style>
 </defs>
 <g id="Capa_x0020_1">
  <metadata id="CorelCorpID_0Corel-Layer"/>
  <g id="_2059568305392">
   <path class="fil0 str0" d="M31.95 3.73l83.64 23.12c0,0 17.34,-13.6 34.68,-1.7 7.15,4.9 0.51,5.95 0.51,5.95 -6.03,-1.35 -21.82,-3.37 -24.82,3.91 -3.57,8.67 -8.5,22.44 -5.44,26.18 3.06,3.74 7.31,9.35 15.13,9.69 7.82,0.34 8.33,0.85 6.97,2.72 -1.36,1.87 -4.76,7.65 -16.83,3.74 -12.07,-3.91 -16.15,-21.76 -22.95,-24.99 -6.8,-3.23 -81.26,-21.93 -81.26,-21.93l-6.97 -1.36c-21.6,-9.27 -16.57,-31.66 7.31,-27.71l10.03 2.38z"/>
   <path class="fil0 str0" d="M131.72 30.89c0,0 1.53,-0.44 2.12,0.07 0.6,0.51 -2.21,11.87 -2.21,11.87 0,0 -1.7,-9.83 0.08,-11.94z"/>
   <path class="fil0 str0" d="M128.15 31.94c0,0 1.53,-0.44 2.12,0.07 0.6,0.51 -2.21,11.87 -2.21,11.87 0,0 -1.7,-9.83 0.08,-11.94z"/>
   <path class="fil0 str0" d="M134.78 30.58c0,0 1.53,-0.44 2.12,0.07 0.6,0.51 -2.21,11.87 -2.21,11.87 0,0 -1.7,-9.83 0.08,-11.94z"/>
   <path class="fil0 str0" d="M137.61 30.4c0,0 1.53,-0.44 2.12,0.07 0.6,0.51 -2.21,11.87 -2.21,11.87 0,0 -1.7,-9.83 0.08,-11.94z"/>
   <path class="fil0 str0" d="M148.57 31.44c0,0 -1.47,-0.61 -2.12,-0.17 -0.65,0.44 0.82,12.05 0.82,12.05 0,0 2.83,-9.57 1.3,-11.87z"/>
   <path class="fil0 str0" d="M145.78 30.93c0,0 -1.47,-0.61 -2.12,-0.17 -0.65,0.44 0.82,12.05 0.82,12.05 0,0 2.83,-9.57 1.3,-11.87z"/>
   <path class="fil0 str0" d="M142.99 30.43c0,0 -1.47,-0.61 -2.12,-0.17 -0.65,0.44 0.82,12.05 0.82,12.05 0,0 2.83,-9.57 1.3,-11.87z"/>
   <path class="fil0 str0" d="M126.18 66.14c0,0 1.29,0.94 2.02,0.66 0.73,-0.27 2.02,-11.9 2.02,-11.9 0,0 -4.98,8.64 -4.04,11.24z"/>
   <path class="fil0 str0" d="M123.19 63.92c0,0 1.28,0.94 2.02,0.66 0.73,-0.27 2.02,-11.9 2.02,-11.9 0,0 -4.98,8.64 -4.04,11.24z"/>
   <path class="fil0 str0" d="M128.95 67.49c0,0 1.29,0.94 2.02,0.66 0.73,-0.27 2.02,-11.9 2.02,-11.9 0,0 -4.98,8.64 -4.04,11.24z"/>
   <path class="fil0 str0" d="M131.55 68.63c0,0 1.28,0.94 2.02,0.66 0.73,-0.27 2.02,-11.9 2.02,-11.9 0,0 -4.98,8.64 -4.04,11.24z"/>
   <path class="fil0 str0" d="M142.2 71.43c0,0 -1.59,0.07 -2.05,-0.57 -0.46,-0.64 4.92,-11.02 4.92,-11.02 0,0 -0.64,9.96 -2.87,11.59z"/>
   <path class="fil0 str0" d="M139.4 70.94c0,0 -1.59,0.07 -2.05,-0.57 -0.46,-0.63 4.92,-11.02 4.92,-11.02 0,0 -0.64,9.96 -2.87,11.59z"/>
   <path class="fil0 str0" d="M136.61 70.45c0,0 -1.59,0.07 -2.05,-0.57 -0.46,-0.63 4.92,-11.02 4.92,-11.02 0,0 -0.64,9.96 -2.87,11.59z"/>
  </g>
 </g>
</svg>
