<?xml version="1.0" encoding="UTF-8"?>
<!DOCTYPE svg PUBLIC "-//W3C//DTD SVG 1.1//EN" "http://www.w3.org/Graphics/SVG/1.1/DTD/svg11.dtd">
<!-- Creator: CorelDRAW 2020 (64-Bit Versión de evaluación) -->
<svg xmlns="http://www.w3.org/2000/svg" xml:space="preserve" width="51.7394mm" height="39.678mm" version="1.1" style="shape-rendering:geometricPrecision; text-rendering:geometricPrecision; image-rendering:optimizeQuality; fill-rule:evenodd; clip-rule:evenodd"
viewBox="0 0 414.53 317.9"
 xmlns:xlink="http://www.w3.org/1999/xlink"
 xmlns:xodm="http://www.corel.com/coreldraw/odm/2003">
 <defs>
  <style type="text/css">
   <![CDATA[
    .str0 {stroke:#727376;stroke-width:2.83;stroke-miterlimit:22.9256}
    .fil0 {fill:#FEFEFE}
   ]]>
  </style>
 </defs>
 <g id="Capa_x0020_1">
  <metadata id="CorelCorpID_0Corel-Layer"/>
  <path class="fil0 str0" d="M33.78 185.57c6.89,-5.01 29.52,-2.23 41.24,-10.45 15.96,-11.2 21.12,-33.4 25.97,-36.4 6.36,-3.93 54.59,-17.14 86.19,-30.73 11.42,-4.91 18.71,-11.69 23.11,-16.8 4.65,-5.4 11.81,-26.63 14.64,-32.22 5.84,-12.33 2.68,-14.9 26.96,-31.65 12.79,-8.82 34.75,-16.13 62.82,-22.96 24.24,-5.89 52.27,-3.65 65.08,12.97 3.47,4.49 21.78,21.61 24.08,27.16 8.72,21.04 17.14,40.01 -4.06,65.09 -19.69,23.3 -46.57,42.97 -56.71,49.96 -24.28,16.75 -25.56,12.87 -39.16,13.96 -2.52,0.74 -27.57,2.63 -34.93,4.44 -6.34,1.56 -10.65,4.02 -18.54,11.88 -24.14,24.04 -58.56,66.56 -65.07,71.24 -4.9,3.53 -29.24,4.39 -41,12.4 -16.4,11.17 -9.89,27.62 -28.37,35.06 -21.97,8.84 -56.14,13.52 -83.7,-3.5 -17.9,-11.06 -22.66,-18.51 -28.91,-40.72 -8.49,-30.18 11.67,-65.14 30.37,-78.75z"/>
 </g>
</svg>
