<?xml version="1.0" encoding="UTF-8"?>
<!DOCTYPE svg PUBLIC "-//W3C//DTD SVG 1.1//EN" "http://www.w3.org/Graphics/SVG/1.1/DTD/svg11.dtd">
<!-- Creator: CorelDRAW 2020 (64-Bit Versión de evaluación) -->
<svg xmlns="http://www.w3.org/2000/svg" xml:space="preserve" width="32.9323mm" height="18.032mm" version="1.1" style="shape-rendering:geometricPrecision; text-rendering:geometricPrecision; image-rendering:optimizeQuality; fill-rule:evenodd; clip-rule:evenodd"
viewBox="0 0 171.58 93.95"
 xmlns:xlink="http://www.w3.org/1999/xlink"
 xmlns:xodm="http://www.corel.com/coreldraw/odm/2003">
 <defs>
  <style type="text/css">
   <![CDATA[
    .str0 {stroke:#606062;stroke-width:1.84;stroke-miterlimit:22.9256}
    .fil0 {fill:#FEFEFE}
   ]]>
  </style>
 </defs>
 <g id="Capa_x0020_1">
  <metadata id="CorelCorpID_0Corel-Layer"/>
  <path class="fil0 str0" d="M167.42 62.49c0,0 -45.99,-48.35 -48.47,-51.45 -2.48,-3.1 -3.72,-8.93 -6.57,-9.67 -2.85,-0.74 -4.22,-0.5 -4.22,0.25 0,0.74 1.86,0.87 2.85,1.86 0.99,0.99 1.86,4.84 -1.98,5.46 -3.84,0.62 -9.17,2.85 -13.39,4.84 -4.22,1.98 -27.15,6.69 -40.29,7.56 -13.14,0.87 -29.88,5.95 -34.84,6.32 -4.96,0.37 -11.59,-0.34 -14.69,1.89 -3.1,2.23 -4.9,4.59 -4.84,5.95 0.06,1.36 -0.43,3.53 0.62,3.04 1.05,-0.5 0.43,-3.1 2.36,-4.15 1.92,-1.05 4.34,-5.39 13.33,-1.43 8.99,3.97 15.99,18.6 15.87,23.68 -0.12,5.08 -0.12,11.78 0.5,11.96 0.62,0.19 0.81,0.31 1.3,-0.62 0.5,-0.93 11.16,-21.76 37.01,-14.63 25.85,7.13 32.54,35.95 32.54,37.69 0,1.74 1.05,3.35 2.42,0.25 1.36,-3.1 14.88,-20.33 30.5,-19.59 15.62,0.74 28.51,6.08 30.62,10.91 2.11,4.83 1.92,5.08 2.48,5.08 0.56,0 -0.62,-3.1 -0.93,-5.58 -0.31,-2.48 -3.16,-16.3 -2.17,-19.62z"/>
 </g>
</svg>
